<?xml version="1.0" encoding="utf-8"?>
<!-- Generator: Adobe Illustrator 21.1.0, SVG Export Plug-In . SVG Version: 6.00 Build 0)  -->
<svg version="1.1" id="レイヤー_1" xmlns="http://www.w3.org/2000/svg" xmlns:xlink="http://www.w3.org/1999/xlink" x="0px"
	 y="0px" viewBox="0 0 521.3 53.3" style="enable-background:new 0 0 521.3 53.3;" xml:space="preserve">
<style type="text/css">
	.st0{fill:#08107B;}
	.st1{fill:#F9BE00;}
</style>
<g>
	<g>
		<g>
			<g>
				<g>
					<g>
						<g>
							<g>
								<polygon class="st0" points="46.5,5 58.2,5 58.2,26.6 72.8,26.6 72.8,32.9 46.5,32.9 								"/>
							</g>
						</g>
						<g>
							<path class="st0" d="M193.9,34c-9.1,0-16.7-2.7-16.7-10.1V5h11.3v18c0,3.5,2.6,5.1,5.4,5.1c2.9,0,5.4-1.6,5.4-5.1V5h11.3
								v18.9C210.6,31.3,203,34,193.9,34z"/>
						</g>
						<g>
							<g>
								<path class="st0" d="M234.2,12.4h11.9c-0.6-6.4-9.6-8.3-16.6-8.3c-7,0-16.1,2.3-16.1,9.3c0,5.1,5,6.7,8.5,7.5
									c2.5,0.5,6.6,1.2,8.7,1.7c2.9,0.6,4.4,1.2,4.4,2.9c0,1.8-1.7,2.7-5.1,2.7c-3.3,0-5.2-1-5.8-3.3l-12.1,0
									c0.7,7.6,10.5,9.3,18.1,9.3c7.7,0,17-1.8,17-9.4c0-4.1-2.6-6.8-9.1-8.1c-3.4-0.7-8.1-1.6-9.9-1.9c-2.4-0.4-3.3-1.3-3.3-2.5
									c0-1.2,1.2-2.5,4.5-2.5C232.2,9.8,233.7,10.6,234.2,12.4z"/>
							</g>
						</g>
						<g>
							<path class="st0" d="M164.6,22.6c8.4,0,10.5-5.3,10.5-8.7c0-3.1-1.8-8.9-10.5-8.9h-22.5l0,27.9h11.1V22.6L164.6,22.6z
								 M153.2,16.5v-5.4h7.4c1.8,0,3.4,0.9,3.4,2.6c0,1.6-0.9,2.8-3.4,2.8H153.2z"/>
						</g>
						<g>
							<g>
								<path class="st0" d="M86.8,5.6L87.1,5h11.7L86.6,23.5v9.4h-11v-9.4L63.5,5h11.6l0.3,0.7l5.3,9.2c0.3,0.6,0.5,0.6,0.8,0
									L86.8,5.6z"/>
							</g>
						</g>
						<g>
							<g>
								<path class="st0" d="M122.1,32.9l0.2-0.6l5.9-13.8c0.2-0.4,0.5-0.3,0.5,0.1v14.3h9.5V5h-11.5l-0.2,0.6l-7.1,16
									c-0.3,0.6-0.5,0.6-0.8,0l-7.1-16L111.4,5H99.9v27.9h9.5V18.6c0-0.3,0.4-0.4,0.5-0.1l5.9,13.8l0.2,0.6H122.1z"/>
							</g>
						</g>
						<g>
							<path class="st0" d="M43.9,18.9c0,9.4-8.1,15-19.5,15C13.1,34,5,28.3,5,18.9c0-9.4,8.1-15,19.5-15
								C35.8,3.9,43.9,9.5,43.9,18.9z M32.2,18.9c0-5.6-2.9-9.1-7.8-9.1c-4.8,0-7.8,3.5-7.8,9.1c0,5.6,2.9,9.1,7.8,9.1
								C29.3,28.1,32.2,24.6,32.2,18.9z"/>
						</g>
					</g>
				</g>
			</g>
			<polygon class="st1" points="4.4,46.8 126.2,49.9 248,46.8 248,45.4 126.2,42.2 4.4,45.4 			"/>
		</g>
	</g>
</g>
</svg>
