<?xml version="1.0" encoding="utf-8"?>
<!-- Generator: Adobe Illustrator 19.2.1, SVG Export Plug-In . SVG Version: 6.00 Build 0)  -->
<svg width="225" height="199" version="1.1" xmlns="http://www.w3.org/2000/svg" xmlns:xlink="http://www.w3.org/1999/xlink" x="0px" y="0px"
	 viewBox="0 0 209.7 186.4" style="enable-background:new 0 0 209.7 186.4;" xml:space="preserve">
<style type="text/css">
	.st0{fill:#FFFFFF;}
	.st1{fill:#231815;}
	.st2{fill:none;stroke:#000000;stroke-linecap:round;}
	.st3{fill:none;stroke:#000000;stroke-linecap:round;stroke-linejoin:round;}
	.st4{fill:none;stroke:#000000;stroke-miterlimit:10;}
	.st5{fill:#040000;}
	.st6{fill:#666666;}
	.st7{fill:#FFFFFF;stroke:#231815;}
</style>
<g id="背景">
</g>
<g id="白塗り">
	<path class="st0" d="M175.9,5.5c0.2,4.2,0.3,8.4,0.5,12.7c0.2,4,1,8.5-0.9,12.3c-0.5,1,1.5,1,1.8,0.2c1.8-3.4,1.3-7.1,1.1-10.8
		c-0.2-4.8-0.4-9.7-0.6-14.5C177.8,4.3,175.9,4.6,175.9,5.5L175.9,5.5z"/>
	<path class="st0" d="M166.7,7c0.4,1.9,1.5,3.2,1.7,5.2c0.3,2.5,0,4.4-0.4,7c-0.4,2.6,0.1,5.8,2.9,6.7c2.9,0.9,8.1,0,10.1-2.4
		c1-1.3,1.1-3,1-4.6c-0.1-2.9-0.5-4.8,0.2-7.7c0.7-2.8-0.7-6.2-3.6-7.3c-3.3-1.2-8,0.2-11,1.8c-1.1,0.6-2.8,1.5-3.3,2.7
		c-0.6,1.4,0.1,3.7-0.1,5.2c-0.3,2.2-1.4,4.5-0.8,6.8c0.4,1.8,1.3,4.4,2.4,5.9c1.6,2.2,10.3-1.7,9.7-2.6c-1.8-2.5-2.7-6.6-2.2-9.6
		c0.2-1.1,0.5-2,0.6-3.1c0.2-0.9,0.2-1.8,0.2-2.7c0.2-2.1-0.8-2.1-2.9-0.1c-0.1,1,1.7,2.3,1.8,3.5c0.1,1-0.7,2.3-0.9,3.3
		c-0.6,3,1.6,7.8-0.6,10.3c2.9-0.9,5.8-1.8,8.7-2.7c-3.7-0.3-2.2-6.3-1.9-8.5c0.2-1.7,0-3.4-0.2-5.1c-0.3-1.7-1.4-2.9-1.7-4.5
		C176,2.6,166.3,4.9,166.7,7L166.7,7z"/>
	<path class="st0" d="M175.2,8.6c0.6,1.9,2.3,4.9,4.3,5.5c1.3,0.4,2.9,0.2,4.2-0.1c0.8-0.2,1.7-0.4,2.5-0.8c1.2-0.5,3-0.8-0.3,0
		c-1.7-0.1-3.5-0.2-5.2-0.3c0.7,3.5,1.5,7.8-2.1,10.1c-2.6,1.6,0,2.2,1.6,2.2c0.3,0,0.6,0,0.9,0c-0.2-0.9-0.5-1.8-0.7-2.7
		c-2.7,1.4-4.9,3.4-7.2,5.3c-1.8,1.4,1.6,1.7,2.3,1.7c2.3-0.1,4.7-0.9,6.5-2.3c1.3-1,2.6-2.5,4.1-3.2c2.8-1.4,2.2-2.8-0.7-2.7
		c-0.3,0-0.6,0-0.9,0c0.5,0.7,1.1,1.5,1.6,2.2c5.1-3.1,5.5-7.6,4.4-13c-0.3-1.5-4.6-0.4-5.2-0.3c-1.8,0.4-3.2,1.1-4.8,2
		c2.6-0.6,5.1-1.1,7.7-1.7c-0.6-0.1-2.8-3.8-2.9-4.4C184.1,3.7,174.5,6.5,175.2,8.6L175.2,8.6z"/>
	<path class="st0" d="M165.3,5.4c-2.3,3.9-1.4,9.8-1.2,14.1c0.1,2.5,0.6,4.6,1.8,6.8c-0.1-0.1,3.6,5.3,3.9,3.7
		c2.3-0.9,4.6-1.8,6.9-2.7c0,0-0.1,0-0.1,0c0.9,0.3,1.8,0.7,2.6,1c0-0.1,0.1-0.1,0.1-0.2c1-1.3-3.6-0.9-3.8-0.8
		c-1.9,0.3-4.4,1-5.7,2.6c0,0.1-0.1,0.1-0.1,0.2c-0.9,1.1,2.5,1,2.6,1c0,0,0.1,0,0.1,0c1.2-0.1,6.5-0.9,6.9-2.7c0,0,0-0.1,0-0.1
		c0.2-0.3,0.1-0.6-0.2-0.8c-3.9-1.7-5.2-6.6-5.4-10.5c-0.2-4-1-9.7,1-13.2c0.9-1.5-3.4-0.9-3.8-0.8C169.3,3.1,166.3,3.7,165.3,5.4
		L165.3,5.4z"/>
	<path class="st0" d="M162.6,11.2c-0.3,0.4-0.6,0.9-0.9,1.3c3.1,0.3,6.1,0.7,9.2,1c0.9-1.8,1.4-3.6,1.8-5.5
		c-3.3,0.3-6.5,0.5-9.8,0.8c0.1,0.6-0.1,1.1-0.5,1.5c3.2,0,6.3,0.1,9.5,0.1c0.3-1.2,0.8-2,1.4-3c-1.6,0.7-1.6,0.9-0.2,0.6
		c0.5-0.1,1,0,1.4,0.3c2,0.7,3.6,2.5,5.6,3.4c2.2,1,9.1-1,7.6-4.5c-0.1-0.1-0.1-0.3-0.2-0.4c-3.1,1.1-6.2,2.3-9.3,3.4
		c0.6,1.1,0.7,2.1,1.7,3.1c1.8,1.7,4.4,1.7,6.5,0.7c1.4-0.7,4.1-3.2,2.3-4.9c-0.8-0.8-1.1-2-1.7-3.1c-1.8-3.3-10.8-0.4-9.3,3.4
		c0.1,0.1,0.1,0.3,0.2,0.4c2.5-1.5,5.1-3,7.6-4.5c-2.2-1-3.8-2.9-6.2-3.6c-2.4-0.8-5.1-0.7-7.6-0.3c-5.5,1-8.6,4.4-9.9,9.8
		c-0.5,2.1,2.3,3,3.8,3.1c2.3,0.1,4.4-1,5.7-2.9c0.7-1,0.9-2.1,1-3.3c0.5-5-9.1-3.4-9.8,0.8c-0.2,1.4-0.6,2.5-1.2,3.7
		c-1.1,2.2,1,3.7,2.9,4c2.5,0.3,5-0.9,6.3-2.9c0.3-0.4,0.6-0.9,0.9-1.3c1.3-2.1-1.2-3.7-2.9-4C166.4,7.9,163.9,9.1,162.6,11.2
		L162.6,11.2z"/>
	<path class="st0" d="M175.2,18.6c-1.1-0.5-1.5-0.3-2.3-1.3c-0.8-1.1-1.4-2.3-2-3.5c-2-3.5-9.9-0.5-9.3,3.4c0.2,1.1,0.5,2.4,0.3,3.6
		c0.9-1,1.8-2.1,2.8-3.1c-0.1,0.1-0.2,0.1-0.4,0.2c2.2,0.2,4.4,0.4,6.5,0.6c-0.1-0.1-0.1-0.2-0.2-0.3c0.2,0.6,0.3,1.1,0.5,1.7
		c0-0.6,0-1.2-0.2-1.7c-1.6-3.7-9.4-2.4-9.7,1.7c-0.2,3.4-0.3,8.3,2.5,10.7c2.6,2.2,10.2,1.8,10.3-2.7c0.1-4.9-9.7-3.4-9.8,0.8
		c0,0.1,0,0.1,0,0.2c0.9-1,1.8-2.1,2.8-3.1c-0.1,0-0.2,0.1-0.2,0.1c1.3-0.2,2.5-0.4,3.8-0.7c-0.2,0-0.4-0.1-0.6-0.1
		c0.7,0.2,1.4,0.5,2,0.7c-1.6-1-1.2-5.1-1.1-6.7c-3.2,0.6-6.5,1.1-9.7,1.7c0.1,0.2,0.4,1.4,0.7,1.9c1.1,2,5,1.4,6.5,0.6
		c3.9-1.8,3.3-5.1,2.7-8.7c-3.1,1.1-6.2,2.3-9.3,3.4c0.9,1.6,1.7,3.3,2.9,4.5c1.3,1.3,2.9,1.7,4.6,2.4
		C173.6,26.7,180.8,21,175.2,18.6L175.2,18.6z"/>
	<g>
		<g>
			<path class="st0" d="M187.9,10.2c0.7,0,2.1-1,0.8-1C188,9.1,186.6,10.2,187.9,10.2L187.9,10.2z"/>
		</g>
	</g>
	<path class="st0" d="M188.9,10.5c0.1,0,0.2,0,0.3,0c0.1,0,0.1,0-0.1-0.1c0.4,0.3,0.9,0.3,1.3,0.1c0.2-0.1,0.8-0.6,0.5-0.9
		c-0.5-0.5-1.1-0.4-1.8-0.3c-0.4,0.1-1,0.3-1.1,0.7C188,10.4,188.6,10.5,188.9,10.5L188.9,10.5z"/>
	<path class="st0" d="M163.3,27.3c-0.2-0.3-0.3-0.8-0.5-1.2c-0.3-0.6-0.6-1.1-0.7-1.7c-0.2-0.8-0.5-2.7,0-3.4
		c-0.2,0.2-0.5,0.4-0.7,0.5c0,0,0.1,0,0.1,0c-0.4-0.1-0.7-0.2-1.1-0.2c0,0.1-0.6,1.3-0.7,1.5c-0.3,0.5-0.8,1-1,1.6
		c-0.3,1,0.7,1.6,1.3,2.2c0.6,0.6,2.4-0.2,1.8-0.8c-0.6-0.6-1.3-0.8-0.9-1.7c0.2-0.5,0.6-0.9,0.8-1.4c0.3-0.6,0.8-1.4,0.4-2.1
		c-0.2-0.3-0.8-0.3-1.1-0.2c-1.5,0.3-1.2,2.3-1.2,3.4c0,0.7,0.2,1.4,0.5,2.1c0.3,0.8,0.6,1.7,1.1,2.4
		C162,28.8,163.9,28.1,163.3,27.3L163.3,27.3z"/>
	<path class="st0" d="M180.6,27.1c-0.7,0.3-1.3,0.6-1.6,1.3c-0.4,0.8-0.6,1.6-0.9,2.4c-0.1,0.4,1.7,0.2,1.9-0.3
		c0.2-0.5,0.4-1.1,0.6-1.6c0.1-0.4,0.3-1.2,0.7-1.3c0.2-0.1,0.8-0.3,0.6-0.6C181.6,26.7,180.8,27,180.6,27.1L180.6,27.1z"/>
	<path class="st0" d="M174.5,29.9c-0.1,0.6-0.4,1-0.4,1.6c0,0.7,0,1.3-0.3,2c-0.4,0.9,1.5,0.6,1.8,0.1c0.3-0.6,0.9-0.7,1.4-1.1
		c0.6-0.4,0.4-0.8,0.5-1.5c0.1-0.8-1.9-0.4-1.9,0.2c0,0.2,0.1,0.6,0,0.8c-0.1,0.1-0.5,0.3-0.6,0.4c-0.4,0.3-0.8,0.6-1.1,1.1
		c0.6,0,1.2,0,1.8,0.1c0.3-0.6,0.4-1.2,0.4-1.9c0-0.3,0-0.7,0.1-1c0.1-0.3,0.2-0.6,0.3-1C176.5,28.9,174.6,29.2,174.5,29.9
		L174.5,29.9z"/>
	<path class="st0" d="M174.4,32.3c-0.4,2.9-1.3,5.3-1,8.2c0.3,2.8,5.4,1,5.8-1c0.3-1.1,1.1-1.9,1.4-3c0.4-1.6,0.2-3.6,0.2-5.2
		c0.1-3.2-5.3-1.9-5.9,0.4c-0.5,2-1.4,7.2-3,8.8c1.7-0.1,3.4-0.3,5.1-0.4c-1.2-1.2-0.1-4.5,0.1-5.9c0.2-2.2-2.9-2.1-4.2-1.5
		c-4.3,2.1-3.3,9.7-4.2,13.7c-0.3,1.4,1.7,2,2.7,1.9c0.2,0,0.4-0.1,0.6-0.1c-0.7-0.1-1.3-0.3-2-0.4c0.2,0.1,0.3,0.3,0.5,0.4
		c-0.2-0.5-0.5-1-0.7-1.4c0,0.2-0.1,0.4-0.1,0.6c0.6-0.6,1.1-1.3,1.7-1.9c-0.2,0.1-0.4,0.2-0.5,0.2c1-0.1,2-0.2,3-0.2
		c-3.1-1.1-4.3,1-5.7,3.1c1.7,0.4,3.5,0.8,5.2,1.2c1-2.3,4.4-3.5,6.1-5.4c1.8-2,2.2-3.5,0.9-5.9c-1.3-2.3-6.8-0.1-5.3,2.6
		c1,1.9-3.3,4-4.4,4.7c-1.3,0.9-2.2,2-2.8,3.5c-1.3,2.9,4,3,5.2,1.2c0.6-0.9,1-1.6,1.5-2.6c-1,0.6-2,1.2-3,1.8
		c-2,0.2,0.1,0.1,0.5,0.1c0.6,0,1.3-0.3,1.8-0.5c1.2-0.6,1.8-1.3,2-2.7c0.1-0.6-0.3-1.1-0.7-1.4c-1-0.8-1.9-0.9-3.1-0.7
		c0.9,0.6,1.8,1.3,2.7,1.9c0.8-3.6,0.6-7.5,1.9-10.9c-0.5,0.5-1,0.9-1.5,1.4c0.2-0.1,0.3-0.2,0.5-0.3c-1.4-0.5-2.8-1-4.2-1.5
		c-0.2,2.1-1.4,6.2,0.5,8c1.5,1.4,3.7,0.9,5.1-0.4c2.3-2.3,3.3-7.8,4.1-10.9c-2,0.1-3.9,0.3-5.9,0.4c0,1.7,0.3,3.8-0.4,5.4
		c-0.4,1-0.9,1.7-1.2,2.8c1.9-0.3,3.9-0.7,5.8-1c-0.3-2.4,0.7-4.7,1-7.1C180.7,29,174.7,29.7,174.4,32.3L174.4,32.3z"/>
	<path class="st0" d="M174.4,43.1c-1.4,7.4-1.7,14.6-2,22.1c-0.1,2.4,5.7,1.2,5.8-0.7c0.4-7.5,0.7-14.7,2-22.1
		C180.6,40.1,174.8,41.1,174.4,43.1L174.4,43.1z"/>
	<path class="st0" d="M177.4,43.3c0.2,0,0.3,0.1,0.5,0.1c-0.5-0.2-1.1-0.4-1.6-0.7c0.4,0.6-0.4,3.6-0.4,4.3c-0.1,1.3-0.1,2.7-0.2,4
		c-0.1,3.2,0.4,6.3,0.5,9.4c0.1,2.7,5.4,1.6,5.8-0.6c0.6-2.8,0.4-5.4-0.1-8.3c-0.4-2.3-6.2-0.9-5.8,1.6c0.4,2.5,0.6,4.8,0.1,7.3
		c1.9-0.2,3.9-0.4,5.8-0.6c-0.2-4.7-0.6-9.3-0.3-14.1c0.2-2.9,1.4-5.6-2.2-6.1C177,39.3,173.5,42.8,177.4,43.3L177.4,43.3z"/>
	<path class="st0" d="M169,50.2c-1.1,6.5-1.8,12.9-0.1,19.4c0.4,1.7,6.2,0.2,5.8-1.6c-1.6-6.2-1-12.4,0.1-18.7
		C175.1,47.5,169.3,48.5,169,50.2L169,50.2z"/>
	<path class="st0" d="M173.5,51.8c-0.2-0.5-0.4-1-0.6-1.5c-1.9,0.4-3.8,0.9-5.8,1.3c0.1,3.1-1,6.2-1.2,9.3c-0.2,3.3-0.8,6.5-0.7,9.9
		c0,0.9,5.8,0.1,5.8-1.6c0-3.4,0.5-6.9,0.8-10.3c0.3-3,1.3-5.9,1.2-8.9c-0.1-1.1-5.5,0.1-5.8,1.3c-0.2,1.2-0.1,1.7,0.9,2.5
		C169.3,54.7,174.3,52.4,173.5,51.8L173.5,51.8z"/>
	<path class="st0" d="M172.2,66.5c0.6,4,1.1,8,1.6,11.9c0.4,3.2,0.1,7.3,1.5,10.2c1,2.1,5.5,1.2,5.8-1.1c0.1-0.4,0.1-0.8,0.2-1.2
		c0.2-1.4-1.6-1.7-2.6-1.6c-0.5,0-2.1-6.7-2.3-7.7c-0.6-3.1-0.9-6.3-1.5-9.4c-0.4-2.4-4.9-0.8-5.6,0.6c-2.5,4.8-3.3,13-1.6,18.3
		c1.9-0.7,3.7-1.3,5.6-2c-1.4-2.5-2-3.1-2.1-6.4c-0.1-2.7,0-5.3-0.4-8c-0.3-2.4-6.2-1-5.8,1.6c0.5,3.5-0.2,7.3,0.6,10.7
		c0.4,2,1.4,2.8,2.4,4.6c1,1.8,6.3,0.2,5.6-2c-1.4-4.5-0.8-12.1,1.3-16.3c-1.9,0.2-3.8,0.4-5.6,0.6c1,5.6,0.5,20,8.9,19.4
		c-0.9-0.5-1.7-1.1-2.6-1.6c-0.1,0.4-0.1,0.8-0.2,1.2c1.9-0.4,3.9-0.7,5.8-1.1c-1.4-2.8-1.1-7.1-1.5-10.2c-0.5-4-1-8-1.6-11.9
		C177.7,62.6,171.9,64,172.2,66.5L172.2,66.5z"/>
	<path class="st0" d="M174.8,58.8c1.6,2.9,2.2,6.2,3.2,9.3c1,3.4,1.7,6.7,2.1,10.2c0.2,2.1,6,0.8,5.8-1.6c-0.3-3.5-1-6.8-2.1-10.2
		c-0.9-3.1-1.6-6.4-3.2-9.3C179.5,55.2,173.8,57.1,174.8,58.8L174.8,58.8z"/>
	<path class="st0" d="M177.8,58.1c0.2,0.1,0.4,0.2,0.7,0.3c1.2,0.6,5.3-0.3,5.2-2c0-0.3,0-0.5,0-0.8c0-1.4-5.5-0.1-5.8,1.2
		c-0.4,1.8,0.4,2.7,1.2,4.3c0.8,1.5,6.3,0,5.8-1.6c-0.3-0.8-0.5-1.6-0.4-2.5c-1.9,0.5-3.9,1-5.8,1.6c0.6,2.1,1,4.2,2.1,6
		c0.9,1.5,6.4-0.3,5.8-1.6c-0.5-0.7-0.8-1.6-0.8-2.5c-1.9,0.5-3.9,1-5.8,1.6c0.8,2.4,1.8,4.6,3.2,6.8c1.9-0.6,3.7-1.2,5.6-1.8
		c-0.9-0.9-1.4-1.9-1.4-3.2c-1.9,0.6-3.7,1.2-5.6,1.8c1,0.8,1.7,2.8,2.4,3.9c1.2,1.8,2.5,3.4,3.8,5c0.9,1.1,6.3-0.5,5.6-1.8
		c-0.5-0.9-0.9-1.8-1.3-2.8c-0.6-1.6-6.3,0.1-5.8,1.6c1,2.9,3.6,6.7,5.9,8.7c1.1,1,5.2,0,5.6-1.5c0-0.1,0.1-0.2,0.1-0.3
		c0.4-1.6-5.3-0.8-5.7,0.9c0,0.1-0.1,0.2-0.1,0.3c1.9-0.5,3.7-1,5.6-1.5c-2.2-1.9-4.7-5.4-5.6-8.1c-1.9,0.5-3.9,1-5.8,1.6
		c0.3,1,0.7,1.9,1.3,2.8c1.9-0.6,3.7-1.2,5.6-1.8c-1.6-1.9-3.3-3.9-4.5-6.1c-0.6-1.1-0.8-2.1-1.8-2.9c-1-0.8-5.9,0.1-5.6,1.8
		c0.2,1.7,0.7,2.5,1.8,3.7c1,1.1,6.3-0.7,5.6-1.8c-1.4-2.2-2.4-4.3-3.2-6.8c-0.5-1.6-6.1-0.1-5.8,1.6c0,0.9,0.3,1.7,0.8,2.5
		c1.9-0.5,3.9-1,5.8-1.6c-1.1-1.8-1.5-3.9-2.1-6c-0.4-1.6-5.9-0.1-5.8,1.6c-0.1,0.9,0.1,1.7,0.4,2.5c1.9-0.5,3.9-1,5.8-1.6
		c-0.6-1.2-1.6-2.2-1.2-3.6c-1.9,0.4-3.8,0.8-5.8,1.2c0,0.3,0,0.5,0,0.8c1.7-0.7,3.5-1.3,5.2-2c-0.2-0.1-0.4-0.2-0.7-0.3
		C181.1,54.9,175.8,57.1,177.8,58.1L177.8,58.1z"/>
	<path class="st0" d="M187.3,74.3c0.6,0.1,1.5,0.3,2,0.6c-0.2-0.3-0.4-0.6-0.7-0.9c0.3,1.8,1.6,3.6,2.4,5.2c0.7,1.2,2.9,0.9,3.9,0.4
		c1.2-0.6,2.1-1.7,1.4-2.9c-0.4-0.8-0.9-1.6-1.3-2.4c-0.4-0.7-0.5-1.4-0.8-2.1c-0.7-1.5-3.6-1.8-5-2.1c-1.3-0.3-3.2,0.5-3.8,1.8
		C184.9,73.3,186.1,74,187.3,74.3L187.3,74.3z"/>
	<path class="st0" d="M197.1,78.1c0.3-0.6,0.5-1.3,0-2c-0.2-0.3-0.7-0.5-1-0.6c-0.8-0.1-0.9-0.1-0.3,0c0.3,0.2,0.4,0.2,0.2,0
		c-0.5-0.4-1.4-0.4-1.9-0.3c-0.7,0.1-1.6,0.3-2.2,0.8c-0.4,0.3-1,0.8-1.1,1.4c-0.1,0.6,0.2,0.9,0.6,1.2c0.5,0.4,1.2,0.5,1.9,0.6
		c-0.4-0.1-0.8-0.2-1.2-0.3c0,0,0.1,0,0.1,0.1c-0.2-0.3-0.4-0.5-0.6-0.8c0,0.1,0.1,0.1,0.1,0.2c0-0.2,0-0.3,0-0.5c0,0,0-0.1,0.1-0.1
		c-0.2,0.5-0.3,1,0.1,1.4c0.3,0.4,1.1,0.6,1.6,0.7c0.8,0,1.6-0.1,2.3-0.4C196.1,79.1,196.8,78.7,197.1,78.1L197.1,78.1z"/>
	<path class="st0" d="M182.3,70.9c0,2.7,1.6,4.9,2.6,7.4c0.9,2.3,2.4,5,2.8,7.5c0.2,1.6,5-0.4,5.5-1c1.6-1.5,5.1-4.5,0.9-5.6
		c0.2,0.2,0.3,0.4,0.5,0.7c0.1-0.2,0.1-0.5,0.2-0.7c0.3-1.4-5.4-0.5-5.7,1c-0.1,0.2-0.1,0.5-0.2,0.7c-0.1,0.4,0.1,0.6,0.5,0.7
		c2.5,0.7-0.7,3-1.5,3.7c1.8-0.3,3.7-0.6,5.5-1c-0.4-2.5-1.8-5.1-2.8-7.5c-1-2.4-2.6-4.7-2.6-7.4C188.1,68.3,182.3,69.1,182.3,70.9
		L182.3,70.9z"/>
	<path class="st0" d="M188.2,80c0,0-0.1,0.1-0.1,0.1c0.4-0.3,0.8-0.6,1.1-0.8c2.5,0.5,3.3,0.4,2.4-0.1c-0.1-0.1-0.2-0.2-0.3-0.3
		c-0.2-0.1-0.4-0.3-0.5-0.4c-0.4-0.3,0.3,0.2,0.1,0.2c0.1-0.1-0.4-0.9-0.4-0.9c-1-1.1-2.7-1.1-3.9-0.4c-0.9,0.5-2.4,1.8-1.4,3
		c0.3,0.3,0.5,0.6,0.7,0.9c0.1,0.1,0.2,0.2,0.1,0c0,0.1,0.1,0.2,0.1,0.3c0,0.1,0,0.1,0-0.1c1.3-0.8,2.6-1.5,3.9-2.3
		c-0.1,0-0.1,0-0.2,0c0.4,0.1,0.8,0.3,1.2,0.4c0.4,0.3,0.4,0.8,0.4,0.3c0-0.3,0-0.6-0.1-0.9c-0.2-0.6-0.6-1.1-1.1-1.4
		c-1.1,1.3-2.2,2.5-3.2,3.8c-0.3,0-0.6-0.1-0.9-0.3c-0.1-0.1-0.1-0.1,0,0.1c-0.1-0.2,0.1,0.2,0.1,0.3c0.1,0.2,0.2,0.4,0.2,0.6
		c0,0.1,0.1,0.2,0.1,0.2c0.1,0.3,0.1,0.3,0.1-0.1c0.2-0.4,0.3-0.7,0.5-1.1c0,0-0.1,0.1-0.1,0.1c0.9-0.4,1.8-0.8,2.7-1.3
		c-1.3,0.1-3.3,0.9-3.4,2.5c-0.1,1.5,1.6,2.1,2.9,2c0.8-0.1,1.6-0.3,2.2-0.8c0.4-0.3,1-0.9,1-1.5c0.1-1.4-1.5-2-2.7-1.9
		c0,0-0.1,0-0.1,0c0.7,0.1,1.3,0.3,2,0.4c0,0-0.1,0-0.1-0.1c0.2,0.5,0.5,1,0.7,1.4c0,0,0-0.1,0-0.1c-0.3,0.5-0.7,1-1,1.5
		c0,0,0.1,0,0.1-0.1c-0.7,0.3-1.5,0.5-2.2,0.8c1.3-0.1,2.6-0.7,3.2-1.9c0.4-0.7,0.1-1.5-0.2-2.2c-0.2-0.6-0.5-1.2-0.9-1.7
		c-0.6-0.7-1.4-1.1-2.3-1.2c-1.1-0.2-2.7,0.3-3.4,1.2c-0.6,0.8-0.7,1.9,0.2,2.5c-0.2-0.2-0.2-0.2,0,0c-0.1-0.1-0.1-0.2-0.1-0.3
		c0,0.3,0,0.5,0,0.8c0,0.1,0,0.2,0.1,0.3c0.3,1.1,1.3,1.5,2.3,1.7c1.4,0.2,3.8-0.7,3.9-2.3c0.1-1.3-0.6-2.3-1.4-3.3
		c-1.8,0.8-3.5,1.7-5.3,2.5c-0.1-0.3-0.1-0.3-0.1-0.1c0.1,0.2,0.2,0.4,0.3,0.7c0.2,0.3,0.4,0.5,0.6,0.7c0.4,0.3,0.8,0.7,1.2,1
		c1.8,1.2,4.3,0.7,5.7-0.8c0.9-1,0.5-2.4-0.7-2.8C190.9,78.5,189.1,78.9,188.2,80L188.2,80z"/>
	<path class="st0" d="M178.3,76.1c-0.3,2.2-0.5,4.4-0.9,6.6c-0.3,2-1.1,3.7-2,5.5c1.9-0.2,3.8-0.4,5.6-0.6c0-0.2-0.1-0.4-0.1-0.5
		c-0.3-2.3-6.2-0.9-5.8,1.6c0,0.2,0.1,0.4,0.1,0.5c0.3,2.3,5,0.7,5.6-0.6c0.9-1.8,1.9-3.6,2.2-5.6c0.5-2.5,0.7-5,1-7.5
		C184.5,72.9,178.6,73.8,178.3,76.1L178.3,76.1z"/>
	<path class="st0" d="M180,77.8c0,3.1-1.9,7.4-3.2,10.2c-0.4,0.9,4.9-0.2,5.7-1.1c0.1-0.1,0.3-0.3,0.4-0.4c-1.9,0.4-3.8,0.7-5.7,1.1
		c-0.3,1.1-1,2-1.3,3.1c-0.3,0.9-0.2,1.9-0.7,2.8c0.6-0.4,1.3-0.7,1.9-1.1c-0.1,0-0.2,0.1-0.2,0.1c1.3-0.1,2.6-0.2,3.9-0.3
		c-0.9-1.1-0.8-2.9-1.7-4.1c-1.1-1.4-2.8-2.6-3.9-4.1c-0.7-1-5.9,0.3-5.8,1.6c0.2,1.9,1.3,3.6,2,5.4c0.6,1.6,0.9,3.2,2,4.6
		c1,1.3,6.1-1.2,5.8-1.6c-1.1-1.3-1.4-3-2-4.6c-0.7-1.8-1.8-3.4-2-5.4c-1.9,0.5-3.9,1-5.8,1.6c1.1,1.6,2.7,2.8,3.8,4.3
		c0.6,0.7,0.9,2.8,1.8,3.9c0.7,0.8,3.1,0,3.9-0.3c0.9-0.3,1.7-0.6,2.3-1.4c0.4-0.5,0.6-2.8,0.7-3c0.3-0.9,0.9-1.7,1.2-2.6
		c0.4-1.2-5,0.4-5.7,1.1c-0.1,0.1-0.3,0.3-0.4,0.4c1.9-0.4,3.8-0.7,5.7-1.1c0.8-1.7,1.2-3.6,1.9-5.4c0.7-1.8,1.4-3.3,1.4-5.3
		C185.8,75.6,180,76.3,180,77.8L180,77.8z"/>
	<path class="st0" d="M200.7,83.2c-1.1,0.3-2.3,0.7-2.9,1.8c-0.5,0.8-0.2,1.8-0.1,2.7c0.2,1.1,0.5,2.1,0.8,3.2
		c0.2,0.7,0.5,1.8,1.1,2.3c1.4,1,3.8,0.3,5-0.7c0,0,0.1,0,0.1-0.1c0.3-0.2,0.7-0.8,0.6-1.2c0,0,0-0.1,0-0.1
		c-0.7-1.9-6.5-0.2-5.8,1.6c0,0,0,0.1,0,0.1c0.2-0.4,0.4-0.8,0.6-1.2c0,0-0.1,0-0.1,0.1c1.7-0.2,3.3-0.5,5-0.7
		c-0.7-0.5-0.9-2.2-1.1-3c-0.2-0.6-1-2.7-0.6-3.3c-0.8,0.4-1.5,0.9-2.3,1.3c0.1,0,0.2-0.1,0.4-0.1c0.8-0.2,2.8-1,2.5-2.1
		C203.7,82.6,201.4,83,200.7,83.2L200.7,83.2z"/>
	<path class="st0" d="M192.6,87.3c0.8,1.8,1.7,3.5,2,5.4c0.4,1.9,6.2,0.5,5.8-1.6c-0.4-1.9-1.3-3.7-2-5.4c-0.5-1.1-2.3-0.9-3.3-0.6
		C194.5,85.2,192.1,86.2,192.6,87.3L192.6,87.3z"/>
	<path class="st0" d="M187.8,86.2c-0.2,2,0.7,4,1.1,6c0.2,1,0.4,2,0.8,3c0.1,0.3,0.3,0.7,0.5,0.9c0.1,0.2,0.3,0.4,0.6,0.6
		c0.3,0.3,0.4,0.1,0.3-0.5c-0.9,1.1,0.8,1.5,1.5,1.5c1.3,0,3-0.5,3.8-1.5c0.4-0.5,0.5-0.9,0.2-1.4c-0.2-0.4-0.9-0.7-1.1-1.2
		c-0.3-0.5-0.4-1.1-0.5-1.6c-0.3-1-0.4-2.1-0.6-3.1c-0.2-1.1-0.9-2.3-0.8-3.5C193.8,83.2,188,84.3,187.8,86.2L187.8,86.2z"/>
	<path class="st0" d="M165.9,83.6c0.3,4.2-0.1,8.2,1,12.3c0.4,1.5,6,0,5.8-1.6c-0.3-2.1-0.6-4.1-0.8-6.2c-0.2-1.7-1.2-4.7-0.6-6.3
		c-1.7,0.6-3.5,1.1-5.2,1.7c4.3,1.5,5.6,12.4,5.8,15.9c1.9-0.5,3.9-1,5.8-1.6c-0.2-2.5,1.8-4.5,1.9-6.9c0.2-0.4,0.3-0.9,0.5-1.3
		c-1.5-2-2.1-2.2-1.9-0.7c-0.5,1.1-0.2,3.4-0.6,4.7c-1.1,3.9-2.9,8-2.3,12.2c0.2,1.4,6,0.1,5.8-1.6c-0.7-4.6,1.9-9,2.7-13.4
		c0.4-2.5,1-5.2-2-5.3c-2.5,0-5.2,1.5-6.6,3.5c-1.7,2.4-3.5,7.4-3.2,10.4c0.1,1.3,5.9,0.2,5.8-1.6c-0.3-4.4-1.7-14.9-6.9-16.8
		c-1.3-0.5-4.7,0.2-5.2,1.7c-0.6,1.5,0.1,3.6,0.3,5.1c0.3,2.7,0.7,5.3,1.1,8c1.9-0.5,3.9-1,5.8-1.6c-1.1-4.1-0.7-8.1-1-12.3
		C171.6,80.8,165.8,81.9,165.9,83.6L165.9,83.6z"/>
	<path class="st0" d="M177.2,95.8c0,4.2-2.1,8.5-3.4,12.5c-0.5,1.7,5.1,0.7,5.8-0.9c0.2-0.6,0.5-1.2,0.9-1.7c0.5-0.8,0-1.2-0.8-1.3
		c-0.2,0-0.4,0-0.6-0.1c-1.3-0.1-3.1,0.2-4.1,1.1c-0.8,0.7-0.8,1.5,0.4,1.7c0.2,0,0.4,0,0.6,0.1c-0.3-0.4-0.6-0.9-0.8-1.3
		c-0.5,0.8-0.9,1.5-1.3,2.4c1.9-0.3,3.8-0.6,5.8-0.9c1.4-4.2,3.4-8.7,3.4-13.2C183,92.9,177.2,93.8,177.2,95.8L177.2,95.8z"/>
	<path class="st0" d="M167.5,92c2.5,6.7,3.7,13.7,4.8,20.7c0.2,1.4,6.1,0.1,5.8-1.6c-1.1-7-2.3-14-4.8-20.7
		C172.8,88.8,167,90.6,167.5,92L167.5,92z"/>
	<path class="st0" d="M168.4,96.3c-0.7,6.5,0.4,13,2.3,19.3c0.6,2.1,3,2.7,4.6,0.7c0.8-1-2.9-0.5-3.5,0.3c0,0.1-0.1,0.1-0.1,0.2
		c1-0.3,2-0.6,3-0.9c0,0-1.5-8-1.7-8.8c-1-4-1.1-7.6-0.7-11.7C172.3,94.7,168.5,95.1,168.4,96.3L168.4,96.3z"/>
	<path class="st0" d="M166,95.1c-0.4,0.9,0.2,1.8,0.3,2.8c0.5,2.7,0.2,5.4,0.2,8.2c-0.1,5.2,1,9.8,3.5,14.4c0.6,1.1,4.3-0.3,3.9-1
		c-2.2-4-3.4-8-3.6-12.6c-0.1-2.1,0.2-4.3,0.1-6.4c0-1.5-1.1-4.7-0.6-6C170.2,93.6,166.5,94,166,95.1L166,95.1z"/>
	<path class="st0" d="M176.6,107.2c-0.4,3.2,0.6,6.5,0.5,9.7c-0.1,3.2-1.5,6.2-1.1,9.4c0.7-0.5,1.5-1.1,2.2-1.6c0,0-0.1,0-0.1,0
		c0.6,0.2,1.1,0.4,1.7,0.6c0,0,0-0.1,0-0.1c-0.3-1.4-4.2-0.4-3.9,1c0,0,0,0.1,0,0.1c0.2,0.7,1.2,0.6,1.7,0.6c0,0,0.1,0,0.1,0
		c0.8-0.1,2.3-0.6,2.2-1.6c-0.4-3.3,1.2-6.7,1.1-10.1c0-2.8-0.8-5.6-0.5-8.4C180.6,105.2,176.7,105.9,176.6,107.2L176.6,107.2z"/>
	<path class="st0" d="M174.1,109.5c0.6,5.8-1.3,12-2.4,17.8c1.3-0.3,2.6-0.7,3.9-1c-0.2-0.1-0.3-0.3-0.2-0.6c0-0.5-3.8,0-3.9,1
		c-0.1,0.2,0,0.4,0.2,0.6c0.6,0.7,3.7-0.1,3.9-1c1.1-5.7,3-11.9,2.4-17.8C177.9,107.9,174,108.6,174.1,109.5L174.1,109.5z"/>
	<path class="st0" d="M171,115.5c-0.5,3.8-0.7,7.6-0.7,11.4c0,0.8,3.9,0.2,3.9-1c0-3.7,0.2-7.4,0.6-11
		C174.9,113.7,171.1,114.4,171,115.5L171,115.5z"/>
	<path class="st0" d="M167.8,116.2c0,0.4,0,0.9,0,1.3c1.3-0.3,2.6-0.7,3.9-1c0-0.7-0.1-1.3-0.1-2c0-0.7-3.9,0-3.9,1
		c0,1.7,2,11.4,1.5,11.8c1.1-0.2,2.3-0.3,3.4-0.5c-1.1-2.1-0.6-7.3-0.7-9.7c-1.3,0.3-2.6,0.7-3.9,1c1.4,2.2,3.4,3.6,4.3,6.2
		c1,2.9,2.3,5.7,2.8,8.7c1.3-0.3,2.6-0.7,3.9-1c-0.7-2.1,0-4.2,0-6.4c0-0.6-2-0.1-2.1-0.1c-0.7,0.2-2.5,0.1-3.4,0.9
		c-1.5,1.4-1.4,5.2-1.5,7.1c1.3-0.3,2.6-0.7,3.9-1c-0.8-2.1-0.7-4.4-1.3-6.6c-0.2-0.8-3.7,0.1-3.8,0.9c-0.5,2.2-0.4,4.4-1.1,6.6
		c1.3-0.3,2.6-0.6,3.8-0.9c-0.8-2.1-1.3-4.2-1.5-6.5c-0.1-0.7-3.8,0-3.9,1c-0.2,3.2,0.4,5.6,1,8.8c0.1,0.8,4-0.1,3.9-1
		c-0.6-3.2-1.1-5.6-1-8.8c-1.3,0.3-2.6,0.7-3.9,1c0.2,2.3,0.7,4.4,1.5,6.5c0.3,0.9,3.6-0.1,3.8-0.9c0.7-2.2,0.6-4.4,1.1-6.6
		c-1.3,0.3-2.6,0.6-3.8,0.9c0.5,2.2,0.5,4.5,1.3,6.6c0.3,0.9,3.8-0.1,3.9-1c0-1.2,0.1-2.4,0.3-3.6c0.1-0.4,0.2-0.8,0.3-1.2
		c0.7-1.2,0.5-1.6-0.5-0.9c-0.1-0.3-1.4,0.6-0.2,0.3c0.4-0.1,0.9-0.2,1.4-0.3c-0.7,0-1.4-0.1-2.1-0.1c0,2.2-0.7,4.2,0,6.4
		c0.3,0.8,4-0.1,3.9-1c-0.5-3-1.8-5.8-2.8-8.7c-1-2.9-2.7-3.7-4.3-6.2c-0.5-0.8-3.9,0.1-3.9,1c0.2,2.4-0.4,7.5,0.7,9.7
		c0.5,0.8,2.9-0.1,3.4-0.5c1.3-0.9,0.6-2.6,0.4-4.1c-0.3-2.9-0.9-5.9-1-8.9c-1.3,0.3-2.6,0.7-3.9,1c0,0.7,0.1,1.3,0.1,2
		c0,0.7,3.8,0,3.9-1c0-0.4,0-0.9,0-1.3C171.7,114.6,167.8,115.1,167.8,116.2L167.8,116.2z"/>
	<path class="st0" d="M170.2,133.2c1.1,1.9,0.7,5.3,0.7,7.4c0.1,3.1,0.1,6.1,0.1,9.2c0,1.2,3.6,0.2,3.9-0.8c0-0.1,0.1-0.3,0.1-0.4
		c0.3-1.3-3.6-0.7-3.9,0.5c0,0.1-0.1,0.3-0.1,0.4c1.3-0.3,2.6-0.5,3.9-0.8c0-3.1,0-6.1-0.1-9.2c0-2.2,0.4-5.5-0.7-7.4
		C173.3,130.9,169.6,132.2,170.2,133.2L170.2,133.2z"/>
	<path class="st0" d="M173.5,132.3c-0.7,6.7,0,13.4-1,20.1c1.3-0.3,2.6-0.6,3.8-0.8c0-0.2-0.1-0.4-0.1-0.6c-0.2-0.9-4.1,0-3.9,1
		c0,0.2,0.1,0.4,0.1,0.6c0.2,0.9,3.7-0.1,3.8-0.8c1-6.9,0.3-13.7,1-20.5C177.4,130.7,173.6,131.1,173.5,132.3L173.5,132.3z"/>
	<path class="st0" d="M175.2,131.6c0.5,2.2-0.1,3.7-0.4,5.8c-0.3,1.9-0.3,3.9-0.6,5.9c-0.2,1.4,3.7,0.7,3.9-0.5
		c0.4-2.2,0.3-4.5,0.8-6.6c0.4-1.9,0.7-3.5,0.2-5.5C178.8,129.4,174.9,130.3,175.2,131.6L175.2,131.6z"/>
	<path class="st0" d="M174.8,134.6c0.4,0.2-0.6-0.5-0.6-0.5c-1.9,0.5-3.9,1-5.8,1.6c0.8,2.7,0,6.1,0.1,8.9c0.1,2.5-0.8,4.9-0.1,7.4
		c0.7,2.7,6.5,1.2,5.8-1.6c-0.4-1.6,0.1-2.8,0.3-4.3c0.1-1.2-0.1-2.4-0.1-3.7c-0.1-2.8,0.7-5.6-0.1-8.3c-0.8-2.7-6.4-1.2-5.8,1.6
		c0.3,1.4,1.8,2.5,3.1,3C174,139.5,178.2,135.9,174.8,134.6L174.8,134.6z"/>
	<path class="st0" d="M170.6,141.3c0,0.9,0,1.7,0,2.6c0,2.6,4.2,1.2,5.3,0.3c0.4-0.3,0.8-0.7,1-1.1c0.7-1.1,0.6-0.8-1-0.3
		c-0.7,0-1.5,0.1-2.2,0.1c0.1,0,0.1,0,0.2,0.1c-0.3-0.2-0.6-0.3-0.9-0.5c0.5,0.7-0.2,1.9-0.3,2.7c-0.2,1.1-0.3,2.3-0.4,3.5
		c1.9-0.4,3.9-0.7,5.8-1.1c0-0.3,0-1.3,0.2-1.6c-1.7,0.4-3.3,0.9-5,1.3c0,0,0.1,0,0.1,0.1c-0.2-0.2-0.4-0.5-0.6-0.7
		c0.2,0.8-0.3,2-0.5,2.8c-0.2,0.8,0.6,1.2,1.2,1.4c1.3,0.4,2.6-0.1,3.8-0.7c-0.7,0.3-1.5,0.5-2.2,0.8c0.1,0,0.2,0,0.3,0
		c-0.8-0.2-1.6-0.4-2.3-0.6c0,0,0,0,0,0c-0.2,2.5,5.6,1.5,5.8-0.6c0.3-3.1-3.7-2.5-5.4-1.5c1.2-0.2,2.4-0.5,3.6-0.7c0,0-0.1,0-0.1,0
		c0.4,0.5,0.8,0.9,1.2,1.4c0.3-1.2,1.3-3.8-0.3-4.5c-1.6-0.7-4.1-0.2-5,1.3c-0.6,1-0.6,2.3-0.5,3.5c0.1,2.1,5.7,0.8,5.8-1.1
		c0.1-1.7,0.5-3.3,0.8-5c0.2-1.1,0.2-2.5-0.9-3.1c-1.3-0.8-3.3-0.3-4.5,0.5c-0.6,0.3-1.1,0.8-1.5,1.4c-0.3,0.5-0.3,1-0.8,1.4
		c1.8,0.1,3.5,0.2,5.3,0.3c0-0.9,0-1.7,0-2.6C176.4,138,170.6,139.2,170.6,141.3L170.6,141.3z"/>
	<path class="st0" d="M171.3,149.3c-2.2,7.7-1.7,16.8-1.9,24.7c1.5-0.7,3.1-1.5,4.6-2.2c-0.9-0.2-1.5-0.7-1.8-1.6
		c-0.1-3.3-5.3-2.2-5.9,0.4c-0.1,0.4-0.2,0.8-0.3,1.2c-0.7,2.8,5.1,2.6,5.7,0.2c1.7-6.2,2.1-13.5,2.5-19.9c0.2-3.1-5.7-2.4-5.9,0.4
		c-0.2,3.2-0.8,6.4-1.1,9.6c-0.3,2.8-0.4,6.5-1.1,9.2c1.9,0.1,3.8,0.1,5.7,0.2c0.1-0.4,0.2-0.8,0.3-1.2c-2,0.1-3.9,0.2-5.9,0.4
		c0.1,3.4,1.5,3.8,4.4,5.4c1.5,0.8,4.6-0.4,4.6-2.2c0.1-7.4-0.5-16.4,1.6-23.6C177.9,146.8,172.1,146.6,171.3,149.3L171.3,149.3z"/>
	<path class="st0" d="M172,149.9c1,2.7,0.6,4.5,0,7.3c1.9-0.4,3.9-0.8,5.8-1.2c0-0.8,0-1.5,0.1-2.3c-1.9,0.4-3.9,0.8-5.8,1.2
		c0.3,0.6,0.5,1.3,0.8,1.9c0.7,1.8,6.3,0.3,5.8-1.6c-0.2-0.6-0.3-1.2-0.2-1.8c0-1.8-5.3-0.1-5.8,1.2c-0.5,1.5-0.6,2.5-0.1,4
		c0.6,1.9,5.7,0.3,5.8-1.6c0.1-0.4,0.2-0.9,0.2-1.3c-1.9,0.4-3.9,0.8-5.8,1.2c0.2,2.2-0.3,4.1-0.5,6.3c1.9-0.4,3.9-0.8,5.8-1.2
		c0-0.4,0-0.7,0-1.1c-1.9,0.6-3.7,1.2-5.6,1.9c0.6,0.5-0.2,4.1-0.3,4.9c1.9-0.4,3.9-0.8,5.8-1.2c0.1-0.4,0.1-0.9,0.2-1.3
		c-1.9,0.3-3.7,0.5-5.6,0.8c0.1,2.4-0.2,4.6-0.9,7c-0.5,1.9,5.3,1,5.8-0.8c0.7-2.6,0.9-5.1,0.9-7.7c0-1.8-5.1-0.1-5.6,0.8
		c-0.7,1.3-0.8,1.4-0.7,2.9c0.1,1.7,5.7,0.4,5.8-1.2c0.1-1.7,1.5-5-0.1-6.2c-1.3-1-5.7-0.2-5.6,1.9c0,0.4,0,0.7,0,1.1
		c0.1,1.6,5.6,0.4,5.8-1.2c0.3-2.6,0.8-4.4,0.6-7c-0.2-1.9-5.4-0.2-5.8,1.2c-0.2,0.9-0.2,1.2-0.3,2.1c1.9-0.5,3.9-1,5.8-1.6
		c-0.5-1.1-0.5-2.2,0.1-3.3c-1.9,0.4-3.9,0.8-5.8,1.2c-0.1,0.6,0,1.2,0.2,1.8c1.9-0.5,3.9-1,5.8-1.6c-0.3-0.6-0.5-1.3-0.8-1.9
		c-0.7-1.7-5.7-0.5-5.8,1.2c-0.1,1.1-0.1,1.9-0.1,3c0,1.7,5.5,0.3,5.8-1.2c0.7-3.3,1.1-4.9,0-8C177.1,146.5,171.4,148.2,172,149.9
		L172,149.9z"/>
	<path class="st0" d="M177.3,111.5c1.6-0.2,2.6-0.6,3.8-1.8c-1.8,0-3.6-0.1-5.3-0.1c0.9,3.6,3,6.4,4.1,9.7c1.8-0.7,3.7-1.4,5.5-2.1
		c-0.7-0.7-1.1-1.6-1.3-2.6c-1.8,0.7-3.7,1.4-5.5,2.1c0.6,0.9,0.7,2.7,1.2,3.8c0.8,1.9,1.6,3.7,2.3,5.6c1.9-0.5,3.9-1,5.8-1.6
		c-0.8-2-1-3.9-1.6-5.9c-0.8-2.7-6.6-1.1-5.8,1.6c1.5,5.3,4.9,10.2,7.8,14.8c1.4,2.3,6.7,0.1,5.3-2.6c-0.6-1.1-1-2.2-1.4-3.3
		c-0.7-1.8-3.6-1.7-4.8-0.6c-0.2,0.2-0.4,0.4-0.7,0.6c1-0.3,2-0.5,2.9-0.8c-2.1-0.1-4.8-7.2-5.3-8.5c-0.9-2.6-6.4-1.2-5.8,1.6
		c1.9,8.2,6.4,15.1,10.8,22.2c1.4,2.2,6.9,0,5.3-2.6c-4.2-6.7-8.6-13.4-10.3-21.2c-1.9,0.5-3.9,1-5.8,1.6c1.5,4.5,6.6,15.3,12.6,9.8
		c-1.6-0.2-3.2-0.4-4.8-0.6c0.6,1.5,1.2,2.9,1.9,4.4c1.8-0.9,3.5-1.7,5.3-2.6c-2.7-4.3-5.9-8.9-7.3-13.8c-1.9,0.5-3.9,1-5.8,1.6
		c0.6,2,0.8,3.9,1.6,5.9c1.1,2.5,6.7,1.1,5.8-1.6c-0.7-2.1-1.6-4.1-2.5-6.2c-0.6-1.5-0.6-3-1.5-4.3c-1.2-2-6.3-0.4-5.5,2.1
		c0.4,1.4,0.9,2.5,1.8,3.6c1.3,1.8,6.4,0.5,5.5-2.1c-1.1-3.4-3.1-6.2-4.1-9.7c-0.6-2.4-4.2-1.2-5.3-0.1c-0.2,0.1-0.3,0.3-0.5,0.4
		c0.9-0.4,1.8-0.8,2.7-1.3c-0.2,0-0.4,0-0.6,0.1C174.6,107.5,173.4,111.8,177.3,111.5L177.3,111.5z"/>
	<path class="st0" d="M188.2,136.4c0.4,0.4,0.8,0.8,1.1,1.2c1.4,1.5,6.1,0.5,5.6-2c-0.1-0.5-0.2-1-0.3-1.5c-0.5-2.5-5.4-0.8-5.8,1.1
		c-0.5,2.1,2.1,5,3.1,6.7c1.8,3.2,3.5,6.5,6.2,9.1c1.8-0.8,3.6-1.6,5.3-2.4c-1.8-1.7-2.2-4.1-4.1-5.7c-1.5-1.2-6.4,0.6-4.9,2.8
		c2.5,3.6,4.8,7.6,7.5,11c1.2,1.5,6.5,0.2,5.6-2c-0.6-1.5-1.3-2.8-2.2-4.1c-1.2-1.7-6.3-0.2-5.6,2c0.7,2,1.5,3.5,3.1,5
		c1.7,1.7,7.2-0.6,5.3-2.4c-1.3-1.2-2.1-2.4-2.6-4.1c-1.9,0.7-3.7,1.3-5.6,2c0.8,1,1.4,2.1,1.8,3.2c1.9-0.7,3.7-1.3,5.6-2
		c-1.8-2.3-3-4.7-4.5-7.2c-0.9-1.4-2.1-2.5-3-3.9c-1.6,0.9-3.3,1.8-4.9,2.8c1.3,1.1,1.9,3.7,3.3,5c1.7,1.6,7.2-0.6,5.3-2.4
		c-1.9-1.9-3.3-4.1-4.6-6.4c-0.8-1.4-4.5-6.2-4.2-7.6c-1.9,0.4-3.9,0.7-5.8,1.1c0.1,0.5,0.2,1,0.3,1.5c1.9-0.7,3.7-1.3,5.6-2
		c-0.4-0.4-0.8-0.8-1.1-1.2C191.9,132.3,186.4,134.5,188.2,136.4L188.2,136.4z"/>
	<path class="st0" d="M188.3,142.6c3.5,6.4,7,14.3,12.7,19.1c1,0.8,5.5-0.4,5.6-1.7c0-0.2,0-0.4,0.1-0.6c0.1-0.6-5.6-0.1-5.8,1.6
		c0,0.2,0,0.4-0.1,0.6c1.9-0.6,3.8-1.2,5.6-1.7c-5.5-4.6-8.9-12.5-12.4-18.7C193.3,139.7,187.8,141.8,188.3,142.6L188.3,142.6z"/>
	<path class="st0" d="M199,159.1c0,0.9,0.7,1.7,1.2,2.4c0.5,0.8,1,1.6,1.4,2.5c0.4,0.8,2.5,0.2,3.1,0c0.7-0.2,2.6-0.6,2.7-1.6
		c0.1-1.8,0-3.8,0.5-5.5c0.3-0.9-1.9-0.5-2.3-0.4c-0.8,0.1-1.5,0.4-2.2,0.7c-0.4,0.2-1.1,0.4-1.2,0.8c-0.6,1.9-0.5,4-0.6,6
		c1.9-0.5,3.9-1,5.8-1.6c-0.4-0.9-0.9-1.7-1.4-2.5c-0.5-0.8-1.2-1.5-1.2-2.4C204.8,156.8,199,157.5,199,159.1L199,159.1z"/>
	<path class="st0" d="M202.4,162.5c0,0.3,0,0.7-0.1,1c-0.1,0.3-0.3,0.4-0.5,0.7c-0.1,0.1-0.1,0.3-0.1,0.5c0,0.1,0.2,0.5,0.3,0.4
		c0.6-0.2,1.2-0.4,1.7-0.5c0,0-0.2-0.6-0.3-0.6c-0.1-0.2-0.2-0.5-0.2-0.7c-0.1-0.4-2,0.2-1.9,0.5c0.1,0.5,0.3,1.3,0.8,1.5
		c0.5,0.1,1.4-0.2,1.7-0.5c0,0,0,0,0,0c0-0.1,0-0.1,0-0.1c-0.2-0.1-0.3-0.2-0.3-0.5c0-0.3,0.2-0.4,0.3-0.5c0.3-0.4,0.2-1,0.3-1.5
		C204.3,161.8,202.4,162,202.4,162.5L202.4,162.5z"/>
	<path class="st0" d="M189.6,142.2c-0.4-0.8-0.6-1.6-0.8-2.5c-0.1-0.6-0.3-1.7-1-1.8c-0.4-0.1-1.5,0.1-1.7,0.5
		c-0.3,0.5,0.5,1.5,0.7,1.9c0.4,0.6,0.9,1.2,1.5,1.8c0.3,0.3,2.1-0.4,1.8-0.6c-0.5-0.5-1-1-1.4-1.6c-0.2-0.4-1-1.3-0.8-1.7
		c-0.6,0.2-1.2,0.4-1.7,0.5c0.4,0.1,0.7,1.7,0.7,2.1c0.2,0.7,0.4,1.4,0.7,2.1C188,143.2,189.8,142.5,189.6,142.2L189.6,142.2z"/>
	<path class="st0" d="M128.4,9.9c0.7,4.2,0.6,8.6,2.1,12.6c0.2,0.6,2,0.1,1.9-0.5c-0.4-1.9-0.9-3.7-1-5.6c-0.2-2.1-0.2-4.1-0.3-6.2
		c0-0.5-2-0.1-1.9,0.5c0.1,2.1,0.2,4.1,0.3,6.2c0.1,1.9,0.7,3.7,1,5.6c0.6-0.2,1.3-0.3,1.9-0.5c-1.5-4.1-1.4-8.4-2.1-12.6
		C130.2,8.9,128.3,9.3,128.4,9.9L128.4,9.9z"/>
	<path class="st0" d="M129.3,10.4c-0.7,2.6,0.1,5,0.4,7.7c0.1,1.1,0,2.2,0.1,3.3c0.1,1.2,1,2,1.1,3.2c1.9-0.5,3.9-1,5.8-1.6
		c-0.2-1.2-0.6-2.4-1-3.6c-0.7-2-6.4-0.3-5.8,1.6c0.4,1.2,0.7,2.4,1,3.6c0.4,1.9,6,0.5,5.8-1.6c-0.1-1.1-0.7-1.4-1-2.5
		c-0.3-1,0-2.1-0.1-3.1c-0.2-2.7-1.2-5.1-0.5-7.8C135.6,7.6,129.8,8.5,129.3,10.4L129.3,10.4z"/>
	<path class="st0" d="M128.2,8.2c-1.2,0.9-2.1,2-2.7,3.4c-0.4,0.8-0.6,1.7-0.9,2.5c-0.3,0.7-1.8,2.4-0.1,1.9c1,0.1,2,0.2,3.1,0.3
		c-1.3-1.7,0-5.6,1.2-7.2c0.8-1.1,1-1.2,2.2-0.8c1.1,0.4,2,1.5,2.4,2.5c0.6,1.6,0.5,4,0.4,5.6c-0.1,2-1.3,3.5-1.3,5.5
		c0.1,2,5.3,0.1,5.8-1.2c0.1-0.3,0.2-0.6,0.3-0.9c0.1-0.3,0-0.5-0.2-0.7c-0.2-0.2-0.5-0.3-0.7-0.5c-1.6-1.1-6.9,1.2-5.4,2.2
		c0.1,0.2,0.1,0.5,0.2,0.7c1.9-0.4,3.9-0.8,5.8-1.2c-0.1-1.8,1.3-3.5,1.3-5.5c0-1.7,0.1-3.6-0.3-5.2c-0.8-3-4.3-5.1-7.3-5.2
		c-3.4-0.1-6.8,1.7-8.6,4.5c-1.6,2.4-3.2,6.8-1.2,9.4c0.6,0.8,2.3,0.5,3.1,0.3c1.9-0.5,3.3-1.7,4.3-3.4c1.2-2.1,1.3-4.8,3.4-6.3
		c1.1-0.8,0.5-1.6-0.5-2C130.9,6.7,129.2,7.4,128.2,8.2L128.2,8.2z"/>
	<path class="st0" d="M126.7,13.3c-0.5,3.6-0.7,7.2-0.7,10.9c0,2.4,4.2,1.4,5.3,0.3c0.1-0.1,0.2-0.2,0.3-0.4
		c2.4-2.5-3.3-2.7-4.7-1.2c-0.1,0.1-0.2,0.2-0.3,0.4c1.8,0.1,3.5,0.2,5.3,0.3c0-3.6,0.2-7.3,0.7-10.9
		C132.8,10.1,127,11.1,126.7,13.3L126.7,13.3z"/>
	<path class="st0" d="M131,20c-0.1,1.9,0.1,3.5,0.8,5.3c1.9-0.5,3.9-1,5.8-1.6c-1.8-3.2-2.5-6.7-6.6-6.4c-2.3,0.1-4.9,0.9-7.2,1.3
		c-4,0.8-9,2.5-9.5-3.1c-1.6,0.7-3.1,1.5-4.7,2.2c2.6,0.4,6.8,0.6,8.8,2.6c1.1-0.8,2.1-1.7,3.2-2.5c-2,0.2-4.5-0.8-6.6-0.9
		c-0.9,0-3.9,0.6-4.1,1.9c-0.3,1.8,2,1.4,3.1,1.7c6.5,1.6,7.2,5.4,5,11.3c-0.6,1.6,5.1,0.9,5.8-0.8c1-2.8,2.3-7.4,0.1-9.9
		c-0.5-0.6-7.9-5.5-8.3-3.1c-1.4,0.6-2.7,1.3-4.1,1.9c3,0.2,5.1,1.1,8.1,0.8c0.6-0.1,4.4-1.2,3.2-2.5c-2.6-2.6-7.2-2.8-10.6-3.3
		c-1.2-0.2-4.9,0.4-4.7,2.2c0.2,2.7,0.3,3.9,3,4.8c2.1,0.7,4.5,0.7,6.7,0.5c3.2-0.4,6.4-1.1,9.5-1.6c0.6-0.1,2.4-0.9,2.9-0.7
		c-1.1,0.8-1.2,1.7-0.1,2.6c0.5,0.9,1,1.7,1.5,2.6c0.9,1.6,6.5,0,5.8-1.6c-0.7-1.6-1-2.8-0.9-4.6C136.9,17.1,131.1,18.3,131,20
		L131,20z"/>
	<path class="st0" d="M114.1,21.6c0.8,2.3,1.4,4.5,1.6,6.9c0.2,2,0.6,3.8,1.7,5.5c1.6-1,3.3-1.9,4.9-2.9c-3.5-3.1-4.4-8.3-7.1-12.1
		c-1.3-1.8-5.3-0.6-5.6,1.5c-0.7,4.3,1,8.3,1.3,12.6c1.9-0.5,3.9-1,5.8-1.6c-1-2.8-2.2-5.5-3.5-8.1c-1-2.1-2-4.5-3.7-6.1
		c-0.7,1.1-1.4,2.1-2.1,3.2c0.6-0.2,1.3-0.4,1.9-0.6c2.1-0.7,3.7-3.6,0.5-4c-1.2-0.1-2.2,0-3.2,0.6c-3.5,1.9-0.3,4.9,2.5,3.3
		c0.1-0.1,0.3-0.2,0.4-0.2c-0.8,0.1-1.5,0.3-2.3,0.4c0.2,0,0.3,0,0.5,0.1c0.2-1.3,0.3-2.7,0.5-4c-0.6,0.2-1.3,0.4-1.9,0.6
		c-0.9,0.3-3.5,1.9-2.1,3.2c3.3,3.2,5.2,9,6.7,13.3c0.9,2.7,6,1.1,5.8-1.6c-0.3-3.9-1.8-7.6-1.2-11.5c-1.9,0.5-3.7,1-5.6,1.5
		c3,4.2,3.9,9.3,7.9,12.9c1.6,1.4,6.4-0.6,4.9-2.9c-1.1-1.7-1.1-3.6-1.3-5.5c-0.3-2.1-0.9-4-1.5-6C119,17.4,113.2,19,114.1,21.6
		L114.1,21.6z"/>
	<path class="st0" d="M100.9,20.5c0,3,1.6,6.3,2.7,9c1.1,2.8,2.6,5.5,4.4,7.9c1.1,1.5,6.7-0.5,5.4-2.2c-1.9-2.6-3.2-5.4-4.4-8.3
		c-1-2.5-2.3-5.2-2.3-7.9C106.7,17.4,100.9,18.4,100.9,20.5L100.9,20.5z"/>
	<path class="st0" d="M104.6,17.1c-1.3,0.3-2.5,0.8-3.3,1.9c-0.6,0.8-0.5,2.4-1,3c0.9-0.4,1.8-0.9,2.7-1.3c-0.2,0-0.3,0-0.5,0.1
		c0.8,0.3,1.6,0.6,2.4,0.9c-0.1-0.1-0.2-0.3-0.3-0.4c-0.1,0.7-0.1,1.5-0.2,2.2c0.1-0.1,0.2-0.2,0.2-0.4c-1.8-0.2-3.6-0.5-5.4-0.7
		c0.1,3.1,0,5.4,1.2,8.5c0.6,1.4,1.2,2.7,2,3.9c0.9,1.5,2.6,2.9,3.1,4.6c1.5-0.9,3-1.9,4.6-2.8c-2.3-1-5.3-1.7-6.5-4
		c-1.4-2.5-1-5.3,0.3-7.8c1.6-2.9-4.3-3.1-5.6-0.7c-1.7,3.2-2,6.8-0.5,10.1c1.7,3.8,5.4,5,9,6.5c1.7,0.7,5.1-0.5,4.6-2.8
		c-0.7-2.7-3.1-4.6-4.4-7.1c-1.6-3-1.8-5.5-1.9-8.8c-0.1-2.6-4.2-2.5-5.4-0.7c-0.1,0.1-0.2,0.2-0.2,0.4c-0.5,0.7-0.7,1.4-0.2,2.2
		c0.1,0.1,0.2,0.3,0.3,0.4c0.5,0.7,1.6,1,2.4,0.9c1.2-0.2,2.3-0.4,3.2-1.4c0.4-0.4,1.7-2.8,0.5-2.6
		C109.4,20.4,108.2,16.2,104.6,17.1L104.6,17.1z"/>
	<path class="st0" d="M102.7,33.4c-0.4,0.1-0.7,0.1-1.1,0.2c0.5,0,0.9,0,1.4,0.1c-0.1,0-0.2-0.1-0.3-0.1c0.3,0.2,0.6,0.3,0.9,0.5
		c-0.7-0.9-1.1-1.8-1.9-2.6c-0.4-0.4-0.8-0.7-1.3-1c-0.4-0.3-0.6-0.2-0.5-0.5c-0.2,0.3-0.4,0.6-0.6,0.9c0.1-0.1,0.1-0.1,0.2-0.2
		c-0.4,0.3-0.8,0.5-1.2,0.8c1.4-0.7,2.3-1.3,2.9-2.8c0.5-1.3-1.8-1.5-2.5-1.4c-1.3,0.1-2.8,0.8-3.3,2.1c0,0.1,0,0.1-0.1,0
		c0.4-0.3,0.8-0.5,1.2-0.8c-1.1,0.5-2.5,1.2-2.5,2.6c-0.1,1.3,1,1.8,1.9,2.4c0.9,0.6,1.4,1.5,1.9,2.4c0.9,1.4,2.6,1.2,4,1
		c1.1-0.2,3.1-0.7,3.3-2.1C105.4,33.5,103.6,33.2,102.7,33.4L102.7,33.4z"/>
	<path class="st0" d="M112,31.2c0.3,1.9-0.2,2.4-1.3,3.8c-0.9,1.2-1.6,2.5-2.2,3.9c-1.2,2.9,4,2.7,5.2,1.1c0.8-1.1,1.6-2.1,2.8-2.7
		c-1.2-0.8-2.4-1.6-3.7-2.4c-0.8,0.8-1.4,1.6-2,2.5c-0.6,1,0.2,1.9,1.1,2.2c1.2,0.4,2.5,0,3.6-0.6c1-0.6,2-1.2,3-1.8
		c-1.6-0.3-3.2-0.7-4.8-1c-0.1,0.2-0.1,0.4-0.2,0.6c-0.5,1.7,2.5,2,3.4,1.7c2.1-0.8,4-2.1,5.3-3.9c1.4-1.8,1.4-3.9,2.1-6
		c0.4-1.4-1.7-1.9-2.6-1.8c-1.4,0.1-2.8,0.9-3.2,2.3c-0.4,1.1-0.4,2.5-0.9,3.6c-0.2,0.4-0.5,0.8-0.8,1.2c0,0-1.3,1.1-0.9,0.9
		c1.1,0.6,2.3,1.1,3.4,1.7c0.1-0.2,0.1-0.4,0.2-0.6c0.7-2.6-3.9-1.6-4.8-1c-1,0.6-2,1.2-3,1.8c1.6,0.5,3.1,1,4.7,1.5
		c0.4-0.6,0.8-1,1.3-1.5c2.3-2.1-2.1-3.3-3.7-2.4c-2,1.2-3.7,2.5-5.1,4.4c1.7,0.4,3.4,0.7,5.2,1.1c0.8-1.9,1.8-3.1,3-4.7
		c1.1-1.6,1-3.3,0.8-5.2C117.5,27.1,111.6,28.5,112,31.2L112,31.2z"/>
	<path class="st0" d="M130.3,22.7c0.5,0.7,0.8,1.4,1.1,2.2c0.3,0.7,0.8,1.2,1.1,1.9c0.5,1.3,2.2,1.5,3.4,1.1c1-0.3,2.9-1.3,2.4-2.7
		c-0.2-0.5-0.4-1-0.7-1.4c-0.2-0.3-0.4-0.5-0.5-0.7c-0.4-1.1-0.9-2-1.5-2.9C134.3,18.1,128.7,20.2,130.3,22.7L130.3,22.7z"/>
	<path class="st0" d="M135.5,27.2c0,0.5,0.4,0.7,0.6,1.1c0.2,0.3,0.3,0.6,0.6,0.7c0.6,0.4,1.5,0.4,2.1,0.2c0.2-0.1,0.8-0.2,0.9-0.5
		c0-0.2-0.1-0.3-0.2-0.5c-0.2-0.2-0.4-0.5-0.6-0.8c-0.3-0.5-0.6-1-0.8-1.6c-0.2-0.5-1.7,0.1-1.9,0.4c-0.3,0.7-0.6,1.4-0.7,2.1
		c-0.1,0.5,1.3,0.1,1.5,0c0.2-0.1,0.5-0.2,0.5-0.5c0.1-0.5-1.8-0.2-1.9,0.3c0,0,0,0.1,0,0.1c0.1-0.1,0.3-0.2,0.4-0.3
		c0,0-0.1,0-0.1,0c0.5,0,1,0,1.5,0c0.1-0.7,0.4-1.5,0.7-2.1c-0.6,0.1-1.3,0.3-1.9,0.4c0.2,0.5,0.4,1,0.7,1.5
		c0.1,0.2,0.2,0.4,0.4,0.5c0,0.1,0.6,0.6,0.6,0.7c0.3-0.2,0.6-0.3,0.9-0.5c0.6-0.2,0.2-0.1-0.1-0.2c-0.2-0.1-0.4-0.3-0.5-0.5
		c-0.2-0.4-0.7-0.8-0.7-1.3C137.4,26.4,135.5,26.6,135.5,27.2L135.5,27.2z"/>
	<path class="st0" d="M126.9,24.2c-0.2,0.4-0.4,0.8-0.5,1.2c-0.1,0.2,0.1,0.3,0.2,0.4c0.7,0.5,1.1,1.5,1.7,2.2
		c0.6,0.7,1.5,1,2.3,1.5c0.4,0.2,2-0.1,1.7-0.7c-0.6-1.6-1.5-3.2-1.6-4.9c-0.1-0.6-2-0.2-1.9,0.5c0.1,1.7,1,3.4,1.6,4.9
		c0.6-0.2,1.2-0.5,1.7-0.7c-0.9-0.5-1.7-0.9-2.4-1.7c-0.5-0.7-0.9-1.5-1.6-2c0.1,0.1,0.1,0.2,0.2,0.4c0.2-0.4,0.4-0.8,0.5-1.2
		C129.1,23.3,127.1,23.5,126.9,24.2L126.9,24.2z"/>
	<path class="st0" d="M128.5,24.2c-0.1,0.4-0.1,0.7-0.1,1.1c0,0.2,0,0.8,0,0.8c0.6-0.1,1.1-0.3,1.7-0.4c0,0,0,0-0.1,0
		c0.1,0.1,0.1,0.1,0.2,0.2c0-0.1,0.4-0.4,0.5-0.5c0.2-0.2,0.3-0.5,0.4-0.7c0.2-0.6,0-1.3-0.1-1.9c0-0.6-2-0.2-1.9,0.5
		c0,0.7,0.4,1.5-0.2,2c-0.3,0.2-1.2,1-0.4,1.3c0.5,0.2,1.3,0,1.7-0.4c0.2-0.2,0.1-0.6,0.1-0.9c0-0.4,0-0.9,0.1-1.3
		C130.7,23.3,128.8,23.5,128.5,24.2L128.5,24.2z"/>
	<path class="st0" d="M110,40.6c0,1.5,0.7,2.7,0.9,4.2c0.1,0.6,2,0.2,1.9-0.5c-0.1-1.3-0.1-2.6-0.2-3.9c0-0.6-1.9-0.2-1.9,0.4
		c-0.1,1.7-0.4,3.4-0.4,5.1c0,1.6,0.7,3.5,1.1,5c0.2,0.6,2,0.1,1.9-0.5c-0.1-2.2-0.2-4.4-0.2-6.5c0-0.6-1.9-0.2-1.9,0.4
		c-0.2,1.9-0.7,3.7-1.1,5.6c-0.2,1.4,0.3,2.5,0.4,3.9c0.1,0.6,2,0.2,1.9-0.5c0-0.9-0.3-2.3,0.2-3.1c0.5-0.7-1.5-0.5-1.8,0
		c-0.7,1-0.4,2.5-0.3,3.6c0.6-0.2,1.3-0.3,1.9-0.5c-0.2-1.6-0.6-2.7-0.3-4.4c0.3-1.6,0.7-3.3,0.9-4.9c-0.6,0.1-1.3,0.3-1.9,0.4
		c0,2.2,0.1,4.4,0.2,6.5c0.6-0.2,1.3-0.3,1.9-0.5c-0.4-1.4-0.9-3-1.1-4.5c-0.2-1.7,0.2-3.7,0.4-5.4c-0.6,0.1-1.3,0.3-1.9,0.4
		c0.1,1.3,0.1,2.6,0.2,3.9c0.6-0.2,1.3-0.3,1.9-0.5c-0.1-1.4-0.9-2.6-0.9-3.9C112,39.6,110,40,110,40.6L110,40.6z"/>
	<path class="st0" d="M107.9,56.8c-0.9,3.1-2.9,7.2-1.2,10.3c0.7,1.3,1.9,2.3,2.8,3.4c1.2,1.4,2.1,3.1,3.2,4.7
		c1.8-0.8,3.6-1.6,5.4-2.4c-0.1-0.1-0.2-0.2-0.3-0.3c-1.7-1.5-7.1,0.8-5.4,2.4c0.1,0.1,0.2,0.2,0.3,0.3c1.5,1.3,6.9,0,5.4-2.4
		c-1.5-2.4-3.3-4.5-5-6.8c-2.2-2.8-0.1-6.8,0.8-9.8C114.3,53.8,108.5,54.6,107.9,56.8L107.9,56.8z"/>
	<path class="st0" d="M113.4,57.7c0.9-2.7,1.2-5.2,0.8-7.9c-0.4-2.6-5.4-0.7-5.8,1c-0.3,1.1-0.3,2.2-0.7,3.3c-0.4,1-0.8,2-1.2,3
		c-0.8,2.1-1.5,4.3-2,6.5c-0.7,2.6,5.2,1.8,5.8-0.5c0.6-2.5,1.4-4.9,2.4-7.2c0.8-1.9,1.1-3.6,1.6-5.5c-1.9,0.3-3.9,0.7-5.8,1
		c0.3,2,0.2,4-0.5,5.9C106.8,60.3,112.6,60,113.4,57.7L113.4,57.7z"/>
	<path class="st0" d="M106,62.8c-0.1,0.1-0.3,0.2-0.4,0.2c0.3,0,0.7,0,1,0c-0.4-0.4-0.4-1-0.9-1.5c-0.3-0.3-1.9,0.1-1.9,0.6
		c0.1,0.9,0.2,1.6-0.1,2.5c-0.2,0.7-0.6,1.4-0.9,2.1c0.6-0.1,1.3-0.3,1.9-0.4c0-0.8,0.3-1.6,0.5-2.3c-0.6,0.1-1.3,0.3-1.9,0.4
		c0.1,1.2-0.7,2.1-1.1,3.2c-0.1,0.4-0.1,1.6-0.5,1.8c0.6-0.1,1.1-0.1,1.7-0.2c0,0,0,0,0-0.1c-0.1-0.5-2.1,0-1.9,0.5c0,0,0,0,0,0.1
		c0.1,0.5,1.5,0,1.7-0.2c0.7-0.5,0.6-1.4,0.9-2.1c0.4-1.2,1.2-2.2,1.2-3.5c0-0.5-1.8,0-1.9,0.4c-0.3,0.8-0.6,1.6-0.5,2.5
		c0,0.5,1.8-0.1,1.9-0.4c0.4-0.8,0.8-1.6,1-2.5c0.3-0.9,0.1-1.5,0-2.4c-0.6,0.2-1.2,0.4-1.9,0.6c0.6,0.5,0.4,1.4,1.3,1.6
		c0.7,0.1,1.4-0.4,2-0.7C108.3,62.6,106.5,62.6,106,62.8L106,62.8z"/>
	<path class="st0" d="M101.2,68.9c-0.1,4.2-3.3,7.8-4.5,11.7c-0.2,0.5,1.7,0.3,1.9-0.3c1.2-4,4.4-7.6,4.5-11.9
		C103.2,68,101.2,68.3,101.2,68.9L101.2,68.9z"/>
	<path class="st0" d="M98.1,79.2C98.3,79.1,98.5,79,98.1,79.2c-0.2,0-0.3,0.1-0.4,0.2c-0.2,0.2-0.3,0.3-0.2,0.5
		c0,0.1,0.2,0.2,0.1,0.4c0,0.1-0.1,0.2-0.2,0.3c-0.1,0.1-0.1,0.2-0.2,0.3c-0.1,0.1-0.2,0.3,0,0.2c0.4-0.1,0.8-0.2,1.2-0.3
		c0,0-0.1,0-0.1,0c-0.5,0-1,0.1-1.4,0.4c-0.3,0.2-0.3,0.5,0.1,0.5c0.8,0,1.6-0.2,2-0.9c0.1-0.2,0.3-0.5,0.4-0.7c0-0.1,0.1-0.2,0-0.4
		c0-0.1-0.2-0.3-0.2-0.3c-0.3,0.2-0.6,0.4-0.9,0.5c0.4-0.1,0.7-0.2,1.1-0.5c0.3-0.2,0.2-0.5-0.1-0.5C99,78.8,98.5,79,98.1,79.2
		L98.1,79.2z"/>
	<path class="st0" d="M96.8,80.1c-0.9,1.3-1.1,2.9-1.5,4.4c-0.7,2.1-1.7,4-3.1,5.7c-0.7,0.9,1.1,1,1.6,0.4c1.2-1.5,2.2-3.1,2.9-4.9
		c0.7-1.8,0.8-4,1.9-5.6C99.2,79.4,97.2,79.5,96.8,80.1L96.8,80.1z"/>
	<path class="st0" d="M96.3,82c-0.7,0.5-1,1.4-1.3,2.2c-0.5,1.1-1.1,2.2-1.6,3.3c0.6-0.1,1.3-0.2,1.9-0.3c0.2-0.5,0.3-1.1,0.5-1.6
		c0.1-0.5-1.8-0.2-1.9,0.3c-0.2,0.5-0.3,1.1-0.5,1.6c-0.2,0.5,1.7,0.1,1.9-0.3c0.4-0.8,0.8-1.7,1.3-2.5c0.2-0.4,0.4-0.7,0.5-1.1
		c0.2-0.4,0.4-1.1,0.7-1.4c0.3-0.2,0.2-0.4-0.1-0.5C97.2,81.5,96.6,81.7,96.3,82L96.3,82z"/>
	<path class="st0" d="M97,80.5c-0.1,0.8-0.7,1.6-1,2.3c-0.4,0.9-0.9,1.7-1.5,2.5c-0.5,0.7,1.5,0.4,1.8,0c0.6-0.8,1-1.6,1.5-2.5
		c0.4-0.8,1.1-1.7,1.2-2.6C99,79.6,97.1,79.9,97,80.5L97,80.5z"/>
	<path class="st0" d="M93.7,86c-0.7,1.8-1.5,3.6-2.6,5.3c0.6-0.1,1.3-0.1,1.9-0.2c-0.2-1,1.3-2.4,1.8-3.2c0.5-0.8-1.4-0.8-1.8-0.1
		c-0.7,1.2-2.3,2.4-2,3.9c0.2,0.8,1.6,0.2,1.9-0.2c1.1-1.6,1.9-3.4,2.6-5.3C95.9,85.1,93.9,85.3,93.7,86L93.7,86z"/>
	<path class="st0" d="M93.4,89.4c-1.4,1.8-2.4,3.8-3,6c-0.4,1.4-0.5,2.7-1.4,3.8c-0.2,0.3-1.5,1.7-1.7,1.8c0.4,0,0.8,0,1.2,0
		c-2-0.9-3.2-2.3-5.3-2.8c0,0.4-0.1,0.8-0.1,1.1c2-0.8,3.9-1.3,5.3-3c1.5-1.9,2.4-4.4,4.1-6.1c0.8-0.8-1-1.1-1.6-0.5
		c-1.3,1.3-2,3.1-3,4.6c-0.7,1-1.4,2.1-2.5,2.7c-0.9,0.5-2.1,0.8-3.1,1.2c-0.5,0.2-0.9,1-0.1,1.1c1.2,0.3,2.1,0.7,3.1,1.4
		c0.6,0.4,1.3,1.1,2,1.3c1,0.3,1.4-0.3,2-0.9c1.1-1.2,2.4-2,2.8-3.6c0.7-2.8,1.3-5.3,3.1-7.7C95.7,88.9,93.9,88.7,93.4,89.4
		L93.4,89.4z"/>
	<path class="st0" d="M90.3,91c-0.2,1.6-0.4,3.1-0.8,4.7c-0.2,0.9-0.9,4.1-1.9,4.3c0.3,0,0.7,0.1,1,0.1c-0.5-0.5,0.5-3,0.7-3.6
		c0.4-1.1,0.7-2.2,1.3-3.2c-0.6,0-1.2,0.1-1.9,0.1c-0.3,2.2-1.6,3.5-3,5c-0.4,0.5-1.1,1.2-0.5,1.8c0.4,0.4,2.5-0.1,2-0.7
		c-0.4-0.6-1.3-0.9-1.3-1.1c0,0.3,0,0.5,0,0.8c0-0.3,0.9-0.6,1.4-0.8c1.1-0.6-0.7-0.9-1.3-0.5c-0.5,0.3-1.1,0.6-1.7,0.8
		c-0.4,0.2-0.5,0.7,0,0.8c0.5,0.1,0.6,0.5,0.9,0.8c0.6-0.2,1.2-0.5,1.8-0.7c-0.3-0.3,2-2.5,2.3-2.9c0.8-1,1.2-2.1,1.3-3.3
		c0.1-0.8-1.6-0.3-1.9,0.1c-0.6,1.2-4.1,8.5-0.8,7.6c1.6-0.4,2.1-1.4,2.6-2.8c0.7-2.4,1.3-4.8,1.6-7.4C92.3,90,90.4,90.4,90.3,91
		L90.3,91z"/>
	<path class="st0" d="M116.7,80.4c-1,0.1-1.7-1.4-2-2.1c-0.3-1-0.4-2-0.6-3c-0.4-1.4-1.1-3.6-2.2-4.6c-0.6-0.6-2.4,0.2-1.8,0.8
		c2,1.9,1.9,5.2,2.8,7.7c0.6,1.5,1.9,2.7,3.6,2.6C117.5,81.6,118,80.3,116.7,80.4L116.7,80.4z"/>
	<path class="st0" d="M119.6,92.5c-0.8-2.3-0.8-4.7-1.5-7.1c-0.4-1.4-0.7-3.9-2.2-4.5c-0.4-0.2-1.2,0-1.5,0.3
		c-1.1,1.1-0.2,3.5,0,4.8c0.5,3.3,0.8,6.5,0.8,9.8c0.6-0.2,1.3-0.3,1.9-0.5c-0.6-1.3-0.5-4.7,0.5-6c-0.6,0.1-1.2,0.2-1.8,0.4
		c1.7,1.7-0.9,6.2,1.1,7.7c0.4,0.3,2.3,0,1.8-0.8c0,0,0,0,0,0c-0.4-0.5-2.2,0.1-1.8,0.8c0,0,0,0,0,0c0.6-0.3,1.2-0.5,1.8-0.8
		c-1.9-1.5,0.6-6-1.1-7.7c-0.4-0.4-1.5-0.1-1.8,0.4c-1.1,1.5-1.4,4.8-0.6,6.6c0.3,0.7,1.9,0.2,1.9-0.5c0-2.3-0.1-4.6-0.4-7
		c-0.1-1-1.6-6.1-0.8-6.9c-0.5,0.1-1,0.2-1.5,0.3c1.5,0.6,2,4.9,2.2,6.2c0.2,1.7,0.5,3.3,1,4.9C117.9,93.6,119.8,93.1,119.6,92.5
		L119.6,92.5z"/>
	<path class="st0" d="M118.2,87.7c-0.5-1.7-1-3.5-1.5-5.2c-0.1-0.4-2,0.1-1.9,0.5c0.4,1.8,0.9,3.5,1.5,5.2
		C116.4,88.6,118.3,88.1,118.2,87.7L118.2,87.7z"/>
	<path class="st0" d="M109.1,59.7c0.6,4.4,1.5,8.6,2.8,12.8c1.9-0.5,3.9-1,5.8-1.6c-0.9-2.6-0.1-5.3-0.8-7.9
		c-0.8-2.9-1.9-5.4-2.1-8.5c-0.1-1.6-5.9-0.4-5.8,1.6c0.2,3.1,1.4,5.6,2.1,8.5c0.7,2.6,0,5.3,0.8,7.9c0.6,1.8,6.3,0.2,5.8-1.6
		c-1.3-4.2-2.2-8.4-2.8-12.8C114.7,56.5,108.9,57.7,109.1,59.7L109.1,59.7z"/>
	<path class="st0" d="M110.4,67.6c0.7,2.6,2,4.5,2.3,7.2c0.4,3.1,1.2,6,2.5,8.9c1.9-0.5,3.9-1,5.8-1.6c-0.1-0.5-0.2-1-0.4-1.4
		c-1.9,0.4-3.9,0.7-5.8,1.1c0.1,0.2,0.2,0.5,0.3,0.7c1.9-0.5,3.9-1,5.8-1.6c-0.4-0.8-0.7-1.7-0.8-2.6c-1.9,0.5-3.9,1-5.8,1.6
		c1.3,4.6,2.7,9.4,4.6,13.7c1,2.2,6.7,0.5,5.8-1.6c-1.9-4.3-3.4-9.1-4.6-13.7c-0.6-2.3-6.3-0.8-5.8,1.6c0.1,0.9,0.4,1.8,0.8,2.6
		c0.9,2.2,6.6,0.6,5.8-1.6c-0.1-0.2-0.2-0.5-0.3-0.7c-0.7-2-5.8-1-5.8,1.1c0,1.2-0.1,1.3,0.4,2.4c1,2.2,6.7,0.5,5.8-1.6
		c-1.3-2.9-2-5.7-2.5-8.9c-0.4-2.7-1.6-4.6-2.3-7.2C115.5,63.7,109.7,65.3,110.4,67.6L110.4,67.6z"/>
	<path class="st0" d="M123.1,89c1-1.4,0.9-3,1-4.7c0.1-0.9,0.3-1.7,0.9-2.4c0.3-0.4,0.7-0.6,1.1-1c0.1-0.2,0.9-0.9,0.2-0.5
		c0.7-0.4,1.7-1.1,0.7-1.6c-1-0.5-3.2,0.2-4.1,0.7c-0.9,0.5-1.4,1-2,1.8c-0.8,0.9-1.7,1.5-2.1,2.6c-0.8,2,0,4.2-1.3,6.1
		c-0.7,0.9,2.1,0.7,2.4,0.7C120.9,90.4,122.4,90,123.1,89L123.1,89z"/>
	<path class="st0" d="M125.9,79.7c-0.7-0.7,0-1.8,0.8-2.1c0.4-0.2,1.9-0.7,1.4-1.4c-0.4-0.6-1.8,0-2.1,0.5c-0.2,0.3-0.3,0.6-0.3,1
		c0,0.3,0.1,1.3-0.2,1.6c0.3-0.1,0.6-0.2,0.9-0.4c0.3,0,0-0.1-0.1-0.2c-0.2-0.1-0.4-0.2-0.6-0.3c-0.4-0.1-0.9-0.1-1.3-0.1
		c0.2,0.2,0.5,0.3,0.7,0.5c0.4-0.7,0.9-1.3,1.5-1.8c0.3-0.3,0.2-0.5-0.2-0.6c-0.4-0.1-1,0.1-1.4,0.4c-0.7,0.6-1.3,1.2-1.8,2
		c-0.3,0.5,0.4,0.5,0.7,0.5c0.4,0,0.9,0.5,1.3,0.6c0.5,0.1,1.2,0,1.6-0.3c0.5-0.3,0.6-0.7,0.6-1.2c0-0.3,0-0.6,0-0.9
		c0-0.1,0-0.7,0-0.7c-0.3,0.1-0.7,0.2-1,0.3c0,0,0.1,0,0.1,0c-0.2-0.1-0.4-0.2-0.6-0.2c0.1,0,0.1,0-0.1,0.1
		c-0.1,0.1-0.2,0.1-0.4,0.2c-0.2,0.1-0.4,0.2-0.6,0.3c-0.4,0.2-0.7,0.5-1,0.9c-0.5,0.7-0.8,1.6-0.1,2.3
		C124.6,80.9,126.4,80.2,125.9,79.7L125.9,79.7z"/>
	<path class="st0" d="M124.4,83.5c0,0.8-0.1,1.6,0.1,2.4c0.2,0.7,0.6,0.9,1,1.4c0.4,0.6,0.5,1.2,1.2,1.5c0.5,0.3,1,0.2,1.5,0
		c0.3-0.1,1-0.4,0.8-0.8c-0.7-1.6-2.5-4.9-1-6.4c-0.6,0-1.2,0-1.8,0c0.4,1,0.3,2,0.5,3c0.2,1,0.6,1.9,1.2,2.7
		c0.4,0.6,0.9,1.1,1.6,1.1c0.9,0,1.2-0.6,2-0.9c0.4-0.2,0.8-0.7,0.4-1c-0.2-0.2-0.5-0.3-0.7-0.5c-0.6-0.4-2.4,0.4-1.5,1
		c0.2,0.2,0.5,0.3,0.7,0.5c0.1-0.3,0.2-0.7,0.4-1c-0.2,0.1-0.4,0.2-0.6,0.3c-0.3,0.2-0.2,0.1-0.1,0.2c0.4,0.2-0.3-0.6-0.4-0.7
		c-0.3-0.4-0.5-0.8-0.6-1.2c-0.5-1.3-0.3-2.7-0.8-4c-0.3-0.7-1.4-0.3-1.8,0c-2,2-0.3,5.2,0.7,7.3c0.3-0.3,0.5-0.6,0.8-0.8
		c0.2-0.1-0.9-1.5-1-1.6c-0.7-0.9-0.7-1.7-0.6-2.8C126.4,82.5,124.5,82.8,124.4,83.5L124.4,83.5z"/>
	<path class="st0" d="M118.6,97.3c-1,7-0.6,14-1.8,21c-1.2,6.8-2.6,13.6-3.8,20.4c-0.6,3.2,6.6,1.6,7.5-0.3c3.6-8,10.2-12.8,17.7-17
		c0.6-0.3,1.9-1.4,1.4-2.3c-4.4-9.1-6.2-19.3-12.7-27.2c-1.4-1.7-7.3-0.4-7.5,2c-0.6,11.1-0.1,22.2,1.5,33.2c0.5,3.1,7,0.4,7.7-1.5
		c2.2-5.9,3-10.6,1.1-16.7c-1.9-6.2-4.1-12.3-6.1-18.5c-1-3-6.9-0.5-7.7,1.5c-2.3,5.8-1.3,11.6-0.4,17.6c1.1,7.5,0.8,15,0.3,22.6
		c-0.2,3.3,7.6,1.8,7.7-0.9c0.4-6.8,0.8-13.6,0.1-20.4c-0.7-6.7-2.6-13.3,0-19.9c-2.6,0.5-5.2,1-7.7,1.5c1.9,5.6,3.7,11.2,5.6,16.9
		c2.1,6.4,1.7,10.9-0.6,17.2c2.6-0.5,5.2-1,7.7-1.5c-1.6-10.6-2-21.3-1.4-32c-2.5,0.7-5,1.3-7.5,2c6.2,7.6,8,17.5,12.2,26.2
		c0.5-0.8,1-1.5,1.4-2.3c-8.2,4.6-16.1,10.4-20,19.2c2.5-0.1,5-0.2,7.5-0.3c1.3-6.8,2.7-13.6,3.8-20.4c1.2-7,0.8-14.1,1.8-21
		C126.8,93.2,119,94.5,118.6,97.3L118.6,97.3z"/>
	<path class="st0" d="M126.3,117.8c-0.5,1.6-0.9,3.2-1.1,4.9c-0.1,0.7-0.2,1.4-0.2,2.1c0,0.5,0.2,2,0,2.4c0.7-0.5,1.4-1,2.1-1.5
		c-0.1,0-0.2,0.1-0.3,0.1c1.3-0.2,2.6-0.3,3.9-0.5c-0.1,0-0.2-0.1-0.3-0.1c0.5,0.4,1,0.7,1.5,1.1c0-0.1-0.1-0.1-0.1-0.2
		c-1.1-2.8-8.7-0.5-7.7,2.1c1.2,3.2,7.5,1.2,8.4-1.4c0.5-1.4,0.2-3.2,0.4-4.7c0.2-1.8,0.6-3.5,1.1-5.3
		C134.9,114.1,127.1,115.1,126.3,117.8L126.3,117.8z"/>
	<path class="st0" d="M119.9,125.4c0.1-4.1,1.4-8.2,1.8-12.2c0.4-4.2,0.6-8.5,0.4-12.7c-0.1-1.4-7.4,0.2-7.7,2.1
		c-1.1,6.6-1,13.2-1.6,19.9c-0.3,3.5-0.6,7-0.9,10.4c-0.2,2.7-1.4,7.5-0.5,10c0.6,1.7,5.9-0.5,6.8-1c0,0,0.1,0,0.1-0.1
		c0.2-0.1,1.1-0.7,0.9-1.1c0,0,0-0.1,0-0.1c-0.7-1.7-8.3,0.7-7.7,2.1c0,0,0,0.1,0,0.1c0.3-0.4,0.6-0.7,0.9-1.1c0,0-0.1,0-0.1,0.1
		c2.3-0.3,4.5-0.6,6.8-1c-0.9-2.6,0.3-7.3,0.5-10c0.3-3.5,0.6-7,0.9-10.4c0.6-6.7,0.6-13.3,1.6-19.9c-2.6,0.7-5.2,1.4-7.7,2.1
		c0.2,4.2,0,8.5-0.4,12.7c-0.4,4.1-1.7,8.1-1.8,12.2C112.1,128.5,119.8,127.5,119.9,125.4L119.9,125.4z"/>
	<path class="st0" d="M113.5,138.2c0,0.1-0.1,0.2-0.1,0.2c-0.3,0.5-0.4,1.5,0.1,2c0.1,0.1,0.2,0.1,0.2,0.2c1.6,1.4,4.4,1.4,6.1,0
		c1.4-1.2,2.3-2.8,3.8-3.9c-1.9-0.9-3.8-1.8-5.7-2.6c-0.4,0.6-0.8,1.1-1.2,1.6c2.3,0.5,4.6,0.9,6.9,1.4c1-2,3.6-3.7,5.2-5.3
		c-2.1-0.7-4.3-1.4-6.4-2c-1.2,1.5-2.7,2.2-3.6,4c-1.8,3.5,4.6,3.3,6.2,2c0.4-0.3,2.4-2.9,2.5-3c-1.4-0.9-2.9-1.9-4.3-2.8
		c0.3-0.7-0.5,0.6-0.7,1c-3,4.1,4.2,4.1,6.4,2c2.4-2.2,4.6-5,7.1-7c2-1.5,3.7-2.2,4.3-4.8c0.9-3.7-6.5-2.1-7.6,0
		c-0.4,0.9-0.9,1.6-1.6,2.1c-4,3.3,2.2,5.6,5,3.2c1.6-1.4,2.9-2.8,3.9-4.7c-2.5,0-5,0-7.6,0c0-0.1-2.3,1.3-2.1,1.1
		c-0.9,0.7-1.4,1.6-2.1,2.4c-1.7,2-3.8,3.8-5.8,5.6c2.1,0.7,4.3,1.4,6.4,2c0.6-0.8,1.3-1.3,1.7-2.3c1.1-2.8-2.4-3.3-4.3-2.8
		c-3.3,0.7-3.9,2.8-6.2,4.7c2.1,0.7,4.1,1.3,6.2,2c0.5-1,1.9-1.7,2.7-2.6c3.1-4-4.2-4.1-6.4-2c-2.1,2-4.8,3.9-6.1,6.6
		c-1.9,3.8,5.3,3.3,6.9,1.4c0.4-0.5,0.8-1,1.2-1.6c2.7-3.8-3.5-4.3-5.7-2.6c-1.5,1.1-2.5,2.8-3.8,3.9c2,0,4,0,6.1,0
		c-0.1-0.1-0.2-0.1-0.2-0.2c0,0.7,0.1,1.3,0.1,2c0-0.1,0.1-0.2,0.1-0.2C122.9,135.3,115,135.4,113.5,138.2L113.5,138.2z"/>
	<path class="st0" d="M97.7,111.7c1.3,1.9,3,3.5,4.8,5c0.5,0.5,0.8,1,1.5,1c0.6,0,1.2-0.2,1.5-0.7c-0.4,0.1-0.7,0.3-1.1,0.4
		c0.4-0.1,0.7-0.1,1-0.3c0.1-0.1,0.4-0.2,0.4-0.4c-0.2-1.4-1.6-3.1-2.7-3.9c-0.7-0.6-1.5-1.1-2.3-1.5c-0.4-0.2-2.5-0.4-2.5-0.7
		c-0.1-0.4-2,0-1.9,0.5c0.2,1.8,1.5,3.6,2.7,4.9c1.1,1.3,2.4,2.4,4.1,2.4c0.7,0,2.3-0.2,2.4-1.1c0.1-0.5-0.4-0.8-0.7-1.1
		c-0.8-0.7-1.6-1.5-2.2-2.4c-0.3-0.3-2.1,0.3-1.9,0.6c0.6,1.1,1.2,2.3,1.4,3.5c0.6-0.2,1.3-0.3,1.9-0.5c-0.7-1-1.4-2.2-2.5-2.9
		c-0.4-0.3-2.1,0.5-1.8,0.7c1,0.7,1.6,1.8,2.4,2.7c0.3,0.4,2,0,1.9-0.5c-0.2-1.3-0.8-2.4-1.4-3.5c-0.6,0.2-1.2,0.4-1.9,0.6
		c0.7,0.9,1.7,1.6,2.4,2.5c0.1,0.1,0.4,0.6,0.5,0.5c-0.1,0.2-1.3-0.7-1.5-0.8c-1.7-1.4-3.7-3.8-3.9-6.1c-0.6,0.2-1.3,0.3-1.9,0.5
		c0.1,0.5,0.5,0.5,1,0.6c1.3,0.2,2.1,0.5,3.2,1.2c1.3,0.9,3.1,2.6,3.3,4.3c0.1-0.1,0.3-0.3,0.4-0.4c0.9-0.5,0.1-0.1-0.2,0
		c-0.3,0.1-0.4,0.2-0.6,0.4c0.5-0.2,1-0.3,1.5-0.5c-0.1,0-0.9-0.9-1-1c-0.5-0.4-1-0.8-1.5-1.3c-1.1-1.1-2.2-2.2-3-3.5
		C99.3,110.6,97.5,111.4,97.7,111.7L97.7,111.7z"/>
	<path class="st0" d="M133.3,127.5c-0.5,1.2,0.5,2.2,0.3,3.4c0.6-0.1,1.3-0.3,1.9-0.4c-0.2-0.9-0.9-1.5-1.9-1.5
		c-1.2-0.1-1.9,0.6-2.9,1.1c-0.3,0.2-0.6,0.5-0.2,0.7c0.4,0.2,1,0,1.4-0.2c0.8-0.4,1.4-1.1,1.7-2c0.2-0.6-1.7-0.4-1.9,0.3
		c-0.2,0.6-0.5,1-1,1.2c0.4,0.2,0.8,0.3,1.2,0.5c0.3-0.2,0.7-0.6,1-0.6c0.4,0,0.6,0.7,0.7,1c0.1,0.6,1.9,0.1,1.9-0.4
		c0.2-1.1-0.8-2.3-0.3-3.4c0.2-0.4-0.6-0.4-0.8-0.4C134,126.9,133.5,127.1,133.3,127.5L133.3,127.5z"/>
	<path class="st0" d="M133.1,127.6c0.6,1.7,1.4,3.4,1.6,5.2c0.2,1.6,0.2,3.1,0.7,4.7c0.4,1.5,3.6,0.5,3.9-0.7c0,0,0-0.1,0-0.1
		c0.3-1.7-3.6-1.1-3.9,0.4c0,0,0,0.1,0,0.1c1.3-0.2,2.6-0.5,3.9-0.7c-0.4-1.6-0.4-3.2-0.7-4.8c-0.3-1.7-1.1-3.4-1.6-5
		C136.4,125,132.6,126.1,133.1,127.6L133.1,127.6z"/>
	<path class="st0" d="M132.4,129.1c0,1.4,0.8,2.7,1.3,4c0.5,1.3,1,2.6,1.5,4c0.6,1.7,4.5,0.6,3.9-1c-0.5-1.2-1-2.4-1.4-3.6
		c-0.2-0.6-0.5-1.2-0.7-1.8c-0.2-0.5-0.7-1.3-0.7-1.8C136.3,126.8,132.4,127.4,132.4,129.1L132.4,129.1z"/>
	<path class="st0" d="M135.6,136.6c-0.2,1.6,0.4,3.2,0.9,4.7c0.6,1.8,0.7,3.8,1.4,5.5c0.6,1.4,4.4,0.2,3.9-1
		c-0.7-1.5-0.7-3.3-1.2-4.8c-0.5-1.5-1.3-3.3-1.1-4.8C139.6,134.6,135.7,135.3,135.6,136.6L135.6,136.6z"/>
	<path class="st0" d="M137.8,145.9c0.7,1,1,2.4,1.4,3.6c0.4,1.2,0.8,2.5,1,3.7c0.1,0.4,2-0.1,1.9-0.5c-0.3-1.3-0.7-2.5-1-3.7
		c-0.4-1.2-0.7-2.6-1.4-3.6C139.4,145,137.7,145.8,137.8,145.9L137.8,145.9z"/>
	<path class="st0" d="M139.3,146.2c0.2,2.4,0.3,4.7,0.9,7c0.1,0.5,1.9,0,1.9-0.5c0-1.7-0.2-3.4-0.5-5.2c-0.1-0.5-2-0.1-1.9,0.5
		c0.1,1.5,0.7,2.9,0.9,4.3c0.2,1.2,0.1,2.3,0.4,3.5c0.1,0.5,2.1,0,1.9-0.5c-0.3-1.2-0.2-2.3-0.4-3.5c-0.2-1.5-0.9-2.8-0.9-4.3
		c-0.6,0.2-1.3,0.3-1.9,0.5c0.3,1.7,0.4,3.4,0.5,5.2c0.6-0.2,1.3-0.3,1.9-0.5c-0.6-2.3-0.6-4.7-0.9-7
		C141.2,145.3,139.3,145.6,139.3,146.2L139.3,146.2z"/>
	<path class="st0" d="M139.8,153.3c0.4,1.8,1,3.5,1.4,5.3c0.4,1.6,0.7,3.3,1.3,4.8c0.2,0.4,2.1-0.2,1.9-0.5
		c-0.6-1.6-0.9-3.2-1.3-4.8c-0.4-1.8-1.1-3.5-1.4-5.3C141.6,152.4,139.7,152.9,139.8,153.3L139.8,153.3z"/>
	<path class="st0" d="M141,154.8c0.7,1.4,0.9,3.1,1.2,4.6c0.5,2.1,1,3.8,2,5.7c0.3,0.6,2,0.2,1.9-0.5c-0.1-2.6-1.5-5.2-2.5-7.5
		c-0.3-0.7-2.2-0.1-1.9,0.5c1,2.3,2.4,5,2.5,7.5c0.6-0.2,1.3-0.3,1.9-0.5c-1-1.9-1.4-3.7-2-5.7c-0.4-1.5-0.5-3.3-1.2-4.6
		C142.6,153.7,140.7,154.3,141,154.8L141,154.8z"/>
	<path class="st0" d="M143.9,163.5c-0.1,0.4-0.1,0.7-0.2,1.1c-0.1,0.3-0.2,0.6-0.3,0.9c-0.2,0.6,0.2,1.4-0.1,2c0.6,0,1.2,0,1.9-0.1
		c0.2-0.6,0.6-1.3,0.6-1.9c0-0.7-0.8-1.2-0.8-1.9c0-0.8-1.9-0.5-1.9,0.2c0,0.8,0.5,1.1,0.7,1.8c0.2,0.6-0.3,1.4-0.5,2
		c-0.2,0.8,1.6,0.4,1.9-0.1c0.4-0.7,0-1.2,0.1-2c0-0.3,0.3-0.6,0.4-1c0.1-0.4,0.1-0.8,0.2-1.3C145.9,162.5,144,162.8,143.9,163.5
		L143.9,163.5z"/>
	<path class="st0" d="M143.3,165.1c0.1,1.8-0.6,3.5-1.3,5.1c0.6-0.1,1.3-0.2,1.9-0.3c0.2-1.3,0.1-2.7,0.7-3.9
		c0.1-0.3-1.7-0.2-1.9,0.3c-0.6,1.2-0.5,2.5-0.7,3.9c-0.1,0.5,1.7,0.1,1.9-0.3c0.8-1.7,1.5-3.4,1.4-5.3
		C145.2,164.2,143.3,164.6,143.3,165.1L143.3,165.1z"/>
	<path d="M146.8,166.4c0.2,0.3,0.2,0.6,0.2,0.9c0,0.4,0.1,0.8,0.3,1.2c0,0.1,0.2,0,0.2-0.1c-0.3-0.8-0.5-1.6-0.6-2.4
		c0,0-0.2,0-0.2,0.1c0.1,0.8,0.3,1.6,0.6,2.4c0.1,0,0.1,0,0.2-0.1c-0.1-0.4-0.2-0.8-0.3-1.2c0-0.3,0-0.6-0.2-0.9
		C146.9,166.3,146.8,166.4,146.8,166.4L146.8,166.4z"/>
	<path d="M111.4,182.2c0.1-0.1,0-0.2,0-0.3c0-0.3,0-0.7,0-1c-0.1,0-0.1,0-0.2,0.1c0.2,0.5,0.2,1,0.1,1.5c0,0.1,0.2,0,0.2,0
		c0.1-0.5,0.1-1-0.1-1.5c0-0.1-0.2,0-0.2,0.1c0,0.2,0.2,1.1,0,1.3C111.2,182.3,111.4,182.2,111.4,182.2L111.4,182.2z"/>
	<g>
		<g>
			<path class="st0" d="M107.6,179.3c0.1,0,0.2-0.1,0.1-0.1C107.6,179.2,107.5,179.3,107.6,179.3L107.6,179.3z"/>
		</g>
	</g>
	<path class="st0" d="M108.9,178.1c0.1,0.4-0.4,0.9-0.6,1.2c-0.2,0.2-0.3,0.4-0.3,0.7c0,0.1,0.2,0.1,0.2,0c0.1-0.6,1.2-1.2,1-1.9
		C109.1,178,108.9,178,108.9,178.1L108.9,178.1z"/>
	<g>
		<g>
			<path class="st0" d="M106.1,182.1c1.1,0,1.5-1.5,0.2-1.5C105.2,180.6,104.8,182.1,106.1,182.1L106.1,182.1z"/>
		</g>
	</g>
	<path class="st0" d="M107.3,180.7c1-1.4,2.5-1.3,3-3c0.2-0.6-1.5-0.1-1.7,0.1c-0.7,0.6-2.6,2.2-0.9,2.8c1.3,0.5,3.3-1.9,3.9-2.6
		c0.1-0.1,0.1-0.1,0.1-0.2c-1.1-1.8,0.3-4.5,0.9-6.4c0.7-2.4,0.8-5,1.7-7.3c-0.6,0.1-1.3,0.3-1.9,0.4c-0.2,5-1.9,10.1-3,15
		c-0.1,0.5,1.8,0.2,1.9-0.3c1.2-4.9,2.8-10.1,3.1-15.2c0-0.5-1.8,0-1.9,0.4c-1,2.7-1.3,5.8-2.1,8.7c-0.3,1-0.9,2.2-1,3.2
		c0,0.4,0.1,0.8,0,1.2c-0.1,1.4-0.6,1.8,0.9,0.6c-0.6,0-1.1,0-1.7,0.1c-0.3,1-2.1,1.8-2.8,2.8C105.1,181.4,107,181.1,107.3,180.7
		L107.3,180.7z"/>
	<path class="st0" d="M114.6,142.8c0.3,7.5-1.1,14.9-2.8,22.2c0.6-0.1,1.3-0.1,1.9-0.2c0.1-0.5,0.1-1,0.2-1.4
		c-0.6,0.1-1.1,0.3-1.7,0.4c0.3,0.1,0.5,0.2,0.8,0.3c0.5,0.2,1.8,0,1.7-0.8c-0.2-2.1,0.4-4.1,0.9-6.1c-0.6,0.1-1.3,0.1-1.9,0.2
		c-0.2,2-0.5,3.9-0.9,5.9c0.6-0.1,1.3-0.1,1.9-0.2c0-2.1,0.3-4,0.8-6.1c0.2-0.9,0.9-1.8,0.6-2.8c-0.1-0.3-0.6-0.4-0.8-0.3
		c-0.8,0.1-1.2,0.3-1.7,0.9c0.6,0,1.2,0,1.7-0.1c-0.2-2.2,0.8-4.7,1.1-6.9c0.3-1.9,0.3-3.8,0.7-5.7c-0.6,0.1-1.3,0.2-1.9,0.4
		c0.4,3.1-0.2,5.9-1,8.9c-0.2,0.8,1.8,0.5,1.9-0.2c0.8-3.1,1.4-6,1-9.2c-0.1-0.7-1.8-0.2-1.9,0.4c-0.5,2.3-0.5,4.7-1,7
		c-0.3,1.9-1,3.9-0.9,5.8c0.1,0.7,1.5,0.2,1.7-0.1c-2.1,2.3-2.2,4.9-2.3,8.1c0,0.9,1.8,0.5,1.9-0.2c0.4-2,0.7-3.9,0.9-5.9
		c0.1-0.9-1.8-0.4-1.9,0.2c-0.5,2.2-1.2,4.1-0.9,6.4c0.6-0.3,1.2-0.5,1.7-0.8c-0.3-0.1-0.5-0.2-0.8-0.3c-0.5-0.2-1.4-0.1-1.7,0.4
		c-0.3,0.6-0.2,0.7-0.3,1.7c-0.1,0.9,1.8,0.5,1.9-0.2c1.8-7.5,3.1-14.9,2.8-22.5C116.5,141.6,114.5,142,114.6,142.8L114.6,142.8z"/>
	<path class="st0" d="M112.4,142.4c-0.2,0.3-0.1,0.9-0.4,1.1c0.2-0.1,0.4-0.2,0.7-0.3c0,0-0.1,0-0.1,0c0.3,0,0.6,0,0.9,0
		c0,0-0.1,0-0.1,0c0.1,0,0.1,0.1,0.2,0.1c-0.2-0.3,0-0.8,0-1.2c0.1-0.5-1.8-0.2-1.9,0.3c-0.1,0.3-0.2,0.9-0.1,1.3
		c0.2,0.5,0.9,0.3,1.2,0.2c0.5-0.1,0.9-0.3,1.1-0.7c0.2-0.4,0.3-0.8,0.5-1.1c0.2-0.3-0.7-0.3-0.8-0.3
		C113.1,141.9,112.6,142.1,112.4,142.4L112.4,142.4z"/>
	<path class="st0" d="M111.5,143.1c0.1,0.3,0.6,0.5,0.9,0.6c0.5,0.1,1.1,0.1,1.6,0.1c0.4,0,1-0.1,1.3-0.5c0.3-0.3-0.2-0.4-0.5-0.4
		c-0.3,0-1.3,0.1-1.4-0.3C113.3,142.1,111.4,142.7,111.5,143.1L111.5,143.1z"/>
	<path class="st0" d="M44.6,146c-4.1-0.9-7.4-3-10.9-5.2c-1.5-1-3-1.9-4.4-2.9c-0.4-0.2-0.7-0.5-1.1-0.7c-1.1-0.2-1.5-0.8-1.4-1.6
		c-0.1-0.8,0-0.8,0.1,0.1c0.2,0.6,0.3,1.3,0.3,1.9c0.6-0.3,1.1-0.5,1.7-0.8c0,0-2.1-3.4-1-1.8c0.4,0.6,0.7,1.3,1.3,1.9
		c0.6,0.7,1.2,1,2.1,1.3c0.7,0.2,2.3-0.8,1.2-1.2c-2.1-0.7-2.8-5.1-5.6-3.8c-2.4,1.2-0.8,3.4,0.6,4.5c0.5,0.4,1.8-0.1,1.7-0.8
		c-0.2-1.8-0.4-5.2-3-4.8c-1.9,0.3-2.5,2.3-1.7,3.8c1.3,2.6,5.6,4.3,7.9,5.8c3.6,2.4,7,4.5,11.3,5.4C44.1,147.3,45.7,146.3,44.6,146
		L44.6,146z"/>
	<path class="st0" d="M19.1,127.3c-2.9-1.1-4.2-3.7-6.3-5.7c-1.4-1.4-3-2.4-4.7-3.4c-0.9,0.8-1.8,1.5-2.6,2.3c2.3,0.8,4.2,2.3,6.5,3
		c0.8-0.8,1.5-1.6,2.3-2.4c-0.2-0.2-0.4-0.3-0.6-0.5c-1,0.7-1.9,1.4-2.9,2c4.9,1.7,9.1,2.1,11,7.6c0.8,2.4,0.7,11.6,3.5,11.7
		c0.4,0.3,0.8,0.5,1.2,0.8c-1.7-4.2,0.5-9.6-1.7-13.8c-0.3-0.5-1.1-0.8-1.5-1.2c-0.7-0.8-1.1-1.8-1.9-2.5c-1.2-1.3-2.7-2-4.3-2.6
		c-1-0.3-3,0.2-3.1,1.4c-0.1,1.3,0.6,1.9,1.3,3.1c1.2,2.1,2,4.4,3.7,6.3c1.1,1.2,4.8-0.3,3.6-1.6c-0.7-0.8-4.8-6.7-4.6-8.1
		c-1,0.5-2.1,0.9-3.1,1.4c2.7,0.9,5.5,3.9,6.5,6.5c1.5,3.8-0.3,8.5,1.2,12.2c0.2,0.5,0.7,0.8,1.2,0.8c1.5,0.1,3.6-0.4,4.3-1.9
		c0.6-1.3-0.1-1.9-0.6-3.3c-0.8-2.4-0.8-4.9-1.3-7.3c-0.6-3.1-1.7-6-3.9-8.2c-2.5-2.6-6.1-2.4-9.3-3.6c-1-0.3-4,0.6-2.9,2
		c0.6,0.8,0.9,1,1.9,1.3c1.5,0.5,4.6-1.7,2.3-2.4c-2.3-0.7-4.2-2.2-6.5-3c-1.1-0.4-4.5,1.3-2.6,2.3c4.6,2.5,6.9,7.6,11.8,9.4
		C18.4,130.4,21.4,128.2,19.1,127.3L19.1,127.3z"/>
	<path class="st0" d="M19.7,130.5c-2.4-0.7-3.9-3.6-5.6-5.2c-1.7-1.6-2.7-3.6-4.2-5.4c-0.9-1-4.6,0.2-3.6,1.5c2,2.7,3.6,5.9,6.1,8.2
		c1.1,0.9,4.7-0.6,3.6-1.5c-2.5-2.2-4.2-5.5-6.1-8.2c-1.2,0.5-2.4,1-3.6,1.5c1,1.1,1.7,2.3,2.6,3.6c0.7,1.1,1.8,1.9,2.6,2.8
		c1.7,1.9,3.3,4.1,5.8,4.8C18.6,133.1,21.9,131.2,19.7,130.5L19.7,130.5z"/>
	<path class="st0" d="M21.7,133.9c-1.4,1.6-0.9,4-1.3,5.9c0.2-0.3,0.5-0.7,0.7-1c0.1,0,0.2-0.1,0.3-0.1c0.6,0.1,1.2,0.1,1.8,0.2
		c0,0-0.1-0.1-0.1-0.1c0.1,0.2,0.3,0.4,0.4,0.6c-0.2-1.1-0.1-2.5,0.4-3.5c1-2-2.9-2-3.7-0.4c-0.6,1.3-1.1,2.8-1.9,3.9
		c0.4-0.3,0.8-0.5,1.3-0.8c-0.1,0-0.2,0-0.2,0.1c0.8,0.4,1.5,0.8,2.3,1.2c0.1-0.4,0.1-0.7,0.2-1.1c0.3-1.9-3.7-1.4-3.9,0.3
		c-0.1,0.4-0.1,0.7-0.2,1.1c-0.2,1.2,1.5,1.4,2.3,1.2c1.3-0.4,1.8-1.2,2.3-2.3c0.5-1,1-2.1,1.5-3.1c-1.2-0.1-2.5-0.3-3.7-0.4
		c-0.6,1.2-0.7,2.5-0.6,3.9c0,0.6,0,1.1,0.4,1.5c0.5,0.6,1.4,0.6,2.1,0.4c1.3-0.3,2.2-1.1,2.3-2.4c0.1-0.7,0.1-1.5,0.2-2.2
		c0.1-0.5,0.1-1.3,0.4-1.6c0.6-0.7,0.3-1.6-0.5-1.9C23.5,132.8,22.3,133.1,21.7,133.9L21.7,133.9z"/>
	<path class="st0" d="M25.2,139.7c1.2,4.6,3,7,7.8,8.2c5.9,1.5,12.2,1.7,18.2,2.2c1.1,0.1,3.8-1.2,2.2-2.4c-4.1-3-8.3-5.7-12.8-7.9
		c-4.1-2.1-9.4-3.1-13.1-5.8c-0.7,0.8-1.5,1.6-2.2,2.4c3.1,0.2,6.6,1.4,7.5,4.7c1.1-0.5,2.3-1.1,3.4-1.6c-1.7-1.1-2.3-1.9-4.4-1.4
		c-0.9,0.2-2.5,1.6-1.2,2.4c4.3,2.5,8.8,5,12.8,7.9c0.7-0.8,1.5-1.6,2.2-2.4c-2.3-0.2-4.5-1.1-6.8-1.6c-3.6-0.7-5.4-2-7.8-4.8
		c-1.1-1.3-4.8,0.2-3.5,1.7c4.6,5.3,9.9,6.9,16.8,7.4c1.1,0.1,3.8-1.2,2.2-2.4c-4-3-8.5-5.4-12.8-7.9c-0.4,0.8-0.8,1.6-1.2,2.4
		c-0.8,0.2,1,1.2,0.8,1c1,0.6,3.9,0,3.4-1.6c-1.2-4.3-5.9-6.1-10-6.4c-1.1-0.1-3.8,1.2-2.2,2.4c3.7,2.7,9,3.7,13.1,5.8
		c4.5,2.3,8.7,5,12.8,7.9c0.7-0.8,1.5-1.6,2.2-2.4c-4.1-0.3-8.3-0.6-12.4-1.1c-5.4-0.8-9.5-1.7-11.1-7.6
		C28.6,136.9,24.7,137.9,25.2,139.7L25.2,139.7z"/>
	<path class="st0" d="M33.5,138.3c3.6,1.1,6.7,2.1,10.4,2.5c1.8,0.2,4.6,0.2,5.8,1.6c1.1,1.3,1.6,5.2,1.9,7c1.2-0.5,2.3-0.9,3.5-1.4
		c-0.9-0.4-1.5-2.6-2-3.5c-0.7-1.1-1.5-2.3-2.5-3.2c-2-1.7-4.6-1.8-7.1-1.9c-0.4,0-3.6,1-2.6,1.7c1.9,1.4,3.9,2.8,5.8,4.2
		c1,0.7,4.5-0.8,3.6-1.4c-2-1.4-3.9-2.8-5.8-4.2c-0.9,0.6-1.7,1.1-2.6,1.7c3.9,0.1,6,1.8,7.8,5.1c0.7,1.2,0.8,2.6,2.2,3.2
		c0.8,0.3,3.7-0.2,3.5-1.4c-0.2-1.3-0.5-2.5-0.8-3.7c-0.1-0.5-0.2-2.9-0.5-3.4c-0.6-1-2.2-1.3-3.2-1.6c-2.3-0.6-4.6-0.7-6.9-1
		c-2.6-0.4-4.9-1.3-7.4-2.1C35.5,136.3,32,137.9,33.5,138.3L33.5,138.3z"/>
	<path class="st0" d="M53.1,149.3c0,0.1,0.1,0.3,0.1,0.4c0.3-0.2,0.5-0.5,0.8-0.7c-0.1,0-0.1,0-0.2,0.1c-0.9,0.3-1.1,1.5,0.1,1.3
		c0.8-0.1,2.1,3,2.4,3.4c0.5,1,1.1,1.6,2,2.3c1.4,1.2,3.9,3.4,5.8,3.2c-0.3-0.1-0.5-0.2-0.8-0.3c0.2,0.4,0.3,0.4,0.6,0.7
		c0.6,0.5,2.3-0.4,1.5-1.1c-0.1-0.2-0.2-0.3-0.4-0.5c-0.1-0.2-0.6-0.3-0.8-0.3c-0.8,0.1-3.3-1.9-3.9-2.4c-1.2-1-1.8-1.8-2.5-3.1
		c-0.7-1.4-1.9-3.7-3.7-3.5c0,0.4,0,0.9,0.1,1.3c1-0.3,1.2-0.9,0.8-1.8C54.5,147.7,52.6,148.4,53.1,149.3L53.1,149.3z"/>
	<path class="st0" d="M53,149.5c0.4,0.6,0-0.1,0.1,0.4c0,0.1,0,0.3,0.1,0.4c0.2,0.4,0.6,0.7,0.8,1c0.6,0.7,1.1,1.5,1.8,2.1
		c0.4,0.3,0.9,0.4,1.3,0.1c0.3-0.1,0.8-0.6,0.5-1c-0.7-0.7-1.2-1.5-1.9-2.2c-0.1-0.2-0.3-0.4-0.4-0.5c-0.4-0.3-0.1,0.1-0.1-0.2
		c0-0.4-0.2-0.7-0.4-1C54.3,148,52.5,148.7,53,149.5L53,149.5z"/>
	<path class="st0" d="M42.5,150.2c0.4,0.7,0.4,1.4,0.7,2.1c0.3,0.7,0.6,1.4,1,2c0.6,1.1,1.7,2.1,2.9,2.4c1.2,0.3,2.4-0.4,3.1-1.3
		c0.6-0.8,0.4-1.8-0.6-2c-0.4-0.1-0.9,0.1-1.1,0.4c-0.4,0.5-0.2,0.4-1,0.2c-0.8-0.2-2.3,0.9-1.1,1.3c0.9,0.2,1.5,0.6,2.5,0.2
		c0.3-0.1,0.7-0.4,0.9-0.6c0.1-0.1,0.5-0.7,0.3-0.5c-0.4,0.1-0.8,0.3-1.1,0.4c-0.2,0.3-0.5,0.4-0.9,0.4c-0.3,0.1-0.5,0.1-0.6-0.2
		c-0.2-0.1-0.4-0.3-0.6-0.5c-0.5-0.5-0.9-1.1-1.2-1.8c-0.6-1.1-0.7-2.4-1.3-3.5C43.8,148.6,42,149.3,42.5,150.2L42.5,150.2z"/>
	<path class="st0" d="M61.6,141.8c-1.1,0.8-2.2,1-3.6,1.2c-0.6,0.1-1.8,0.2-2.2-0.2c-0.2-0.3-0.2-0.9-0.3-1.2
		c-0.6,0.2-1.2,0.4-1.9,0.6c1.2,0.7,2.2,1.3,3.6,1.3c1.3,0,3.3,0.3,4.5-0.3c0.6-0.3,1-0.8,0.3-1.2c-0.4-0.3-1.3-0.1-1.8-0.1
		c-1.1,0-2.2,0.2-3.4,0.1c-0.4,0-1.1,0-1.4,0.4c-0.2,0.2-0.3,0.5,0.2,0.6c0.7,0,1.4,0,2.1,0c0.5,0,2.4,0.1,2.7-0.2
		c0.2-0.3-0.4-0.1-0.7-0.1c-0.4,0-0.9,0-1.3,0c-1.2,0-2-0.5-3.1-1.1c-0.3-0.2-2.2,0-1.9,0.6c0.4,0.8,0.2,1.6,1.1,1.9
		c0.8,0.3,2.1,0.1,3,0c2.1-0.2,3.8-0.6,5.5-1.9C63.9,141.4,62,141.5,61.6,141.8L61.6,141.8z"/>
	<path class="st0" d="M18.6,142.2c-0.6,2.2,1,5.7,2.8,7c0.7,0.5,1.8,1,2.7,0.6c0.6-0.3,1.3-1.2,1.1-1.9c-0.1-0.3-0.4-0.4-0.6-0.5
		c-0.6-0.1-1.2,0.1-1.8,0.4c-1.1,0.6-0.1,1.7,0.9,1.2c0.1,0,0.2-0.1,0.3-0.1c-0.2-0.2-0.4-0.3-0.6-0.5c-0.2,0.2-0.2,0.1-0.2-0.3
		c-0.3-0.2-0.6-0.5-0.8-0.8c-0.4-0.5-0.7-1.1-1-1.7c-0.5-1.2-1-2.3-0.7-3.6C20.8,141.1,18.8,141.3,18.6,142.2L18.6,142.2z"/>
	<path class="st0" d="M18.1,139.2c-0.2,0.6-0.2,1.1-0.2,1.7c0.5,0.1,0.9,0.2,1.4,0.4c-0.1-0.6-0.2-1.2-0.2-1.8
		c-0.1-1-1.6-0.4-1.9,0.1c-1.4,2.5-4.1,3-6.3,4.3c-1.2,0.7-4.8,4.2-6.2,3.1c-0.2,0.4-0.4,0.9-0.5,1.3c5.1-1.8,9.8-4,14.2-7.2
		c0.8-0.6-0.1-1.5-0.8-1.2c-1.3,0.5-10.2,4.8-9.8,6c-0.2,0.3-0.4,0.6-0.5,0.9c0.5-0.2,1-0.5,1.5-0.7c1.2-0.6,0.1-1.7-0.9-1.2
		c-0.5,0.2-1,0.5-1.5,0.7c-0.3,0.1-0.6,0.5-0.5,0.9c1,2.8,10.4-4.5,12.1-5.1c-0.3-0.4-0.6-0.8-0.8-1.2c-4.1,3-8.5,5-13.3,6.7
		c-0.5,0.2-1.2,0.8-0.5,1.3c2,1.6,4.7-0.4,6.5-1.6c3.2-2.2,7.4-3.3,9.4-6.8c-0.6,0-1.3,0.1-1.9,0.1c0,0.6,0.1,1.2,0.2,1.8
		c0.1,0.6,1,0.6,1.4,0.4c1.1-0.6,1.1-1.9,1.3-3.1C20.3,138.1,18.3,138.3,18.1,139.2L18.1,139.2z"/>
</g>
<g id="線">
	<g id="XMLID_1_">
		<g>
			<path d="M208.5,154.9c0.8-0.1,1.6,2.2,1.6,3.1c0,1.1-1.3,2.4-1.9,3.6c-0.7,1.3-1.1,2.7-1.7,3.8c-0.6,1.1-1.4,2.2-1.9,3.5
				c-1.4,3-2.6,6.1-6.1,6.2c-0.5-1.5,0.2-3.2,0.6-4.5c0.6-1.7,1.8-3.3,2.6-4.7c-0.2-0.4-0.3-0.7-0.4-1.2l0.4,0l0.2-0.3
				c0.3,0.1,0.3,0.4,0.6,0.5c2.6-2.4,3.9-6,5.4-9.4l0.5-0.1L208.5,154.9z"/>
			<path d="M206.9,81.5c1.5,1.8,2.5,6.7,2.2,9.3c-0.4,3.3-2.5,4-5.7,3.4l0-0.5l-0.3-0.4c-1.6-2.3-2.8-6.4-2.1-10
				c-1,0.9-2.7,1.1-2.8,2.8l-0.5-0.1l-0.2,0.5c-0.3,0.4-2.3,1-2.6,1.9c-0.5,1.7,1.1,4.4,2.2,4.5c0.9,0.1,1-0.7,2.1-0.8l0.5,0.1
				l0.3-0.3c0.3,0.2,0.3,0.8,0.5,1l-0.5,0.3l0.1,0.6c-1.7,1.1-3.4,2.2-5.2,3.5c-0.9,0.7-1.4,1.4-2.8,1l0.1-0.5l0.3-0.4
				c-1.1-2.9-2.6-6.7-2.8-10.9c-0.6-0.3-1.3-0.5-2.1-0.6l-0.4-0.3l-0.4,0.3c-0.2-0.3-0.1-0.9-0.3-1.3l0.5,0l0-0.5c0.1,0,0.2,0,0.3,0
				l0.3,0.5l0.5-0.1c0,0.2,0,0.4,0,0.6c0.6,0.2,1.2,0.4,2.1,0.4c2.7-2.5,5.7-4.7,7.9-7.6l0.4-0.2l-0.1-0.5c1.9,0.4,1.4,3.1,1.9,4.9
				C202.2,81.2,204.6,78.8,206.9,81.5z"/>
			<path d="M185.7,81.5l-0.5,0.1l-0.1,0.5c0,0-0.1,0-0.1,0l-0.3-0.5l-0.6,0c-0.1-0.4,0.2-0.3,0.1-0.6l0.5,0l0.3-0.4
				C185.4,80.7,185.6,81,185.7,81.5z"/>
			<path d="M184.3,84.9c0,0.4,0,0.8,0,1.2l-0.5-0.1l-0.3,0.3c0,0-0.1,0-0.1,0l0-0.5l-0.5,0c0-0.5,0.2-0.7,0.4-1l0.5,0.2L184.3,84.9z
				"/>
			<path d="M183.6,54.6l-0.4,0L183,55c0,0-0.1,0-0.1,0l-0.3-0.5l-0.5,0.1c0-0.5-0.2-0.7-0.1-1.3l0.6-0.1l0.3-0.5
				C183.3,53.2,183.3,54,183.6,54.6z"/>
			<path d="M182.2,40.4l-0.6-0.1l-0.2,0.6c-0.2,0.1-0.2,0.5-0.5,0.5l-0.4-0.4l-0.4-0.3c0.3-0.2,0.3-0.9,0.3-1.4l0.6,0.1l0.1-0.6
				C182.1,38.7,182.1,39.5,182.2,40.4z"/>
			<path d="M179.6,29.8l0.3,0.3c-0.7,0.7-1.3,1.5-2.2,1.9l-0.1-0.5l-0.5,0c0-1.3,0.1-2.5,0.4-3.5l0.4,0.3l0.4-0.3
				c0.2-0.4,0.2-1,1-0.8c0.5,0.7-0.4,1.7,0,2.2c0-0.1,0.2-0.1,0.3-0.1L179.6,29.8z"/>
			<path d="M179.7,91.6l-0.1,0.5l-0.2,0.4c-0.4-0.1-0.5,0.2-0.9,0.1l-0.3-0.5l-0.5,0.1c0-0.2,0-0.3,0-0.5l0.6,0.1l0.3-0.6
				C179.2,91.2,179.2,91.7,179.7,91.6z"/>
			<path d="M178.6,171.6c0.3,1.5-0.1,2.9-0.8,3.8c-2.4,0.2-4.4,1.5-6.9,1.8c-2.2,0.3-4.9-0.1-7.5-0.4c-3.5-0.4-7.1-0.1-9.4-1
				c-0.2-0.5-0.2-1.2-0.3-1.8c0.6-1.4,2.8-1.1,4.8-1.4c0.7-0.1,1.4-0.5,2.1-0.6c2-0.3,4.6,0.6,4.9-1.2l0.3,0.3l0.5,0.1
				c0,0.2,0,0.4,0,0.6c3.1,1.8,8.3,1.5,11.4-0.1c0-0.2,0-0.4,0.1-0.4l0.3,0.3L178.6,171.6z"/>
			<path d="M178.3,14.7c0.3,1.5-1.1,2.3-1,4l0,0.5l0.4,0.3c-0.6,1.2-1.2,2.3-1.8,3.5c-1-0.5-0.2-1.9,0-2.7c0.3-1,0.8-2,0.9-2.8
				c-0.6,0-0.9,1.4-1.9,1.4c-0.7-1.4,1.4-1.9,1.6-3.2l0.4,0.3l0.4-0.3C177.5,15.3,177.6,14.2,178.3,14.7z"/>
			<path d="M175.6,88.4l-0.5,0.3l0.1,0.6c0,0.1,0,0.2,0,0.3l-0.5-0.1l-0.4,0.2c-0.4-1.2-1.7-3.3-0.9-4.4c1,0,0.4,1.7,1.2,1.9
				l0.1,0.6l0.6-0.1C175.2,88.1,175.6,88,175.6,88.4z"/>
			<path d="M174.4,30.8c0,1.2-0.2,2.2-0.4,3.2l-0.3,0.5l0.5,0.2c0,0.3-0.2,0.5-0.4,0.6l-0.5,0l-0.3,0.4c-0.1,0-0.1-0.1-0.3-0.1
				L173,35l-0.5-0.3c0-0.4,0.3-0.6,0.8-0.5c-0.1-0.7,0.4-1.2-0.3-1.4l0.1-0.5l-0.3-0.4c0-0.3,0.4-0.1,0.4-0.4c0,0,0-0.1,0-0.1
				l0.1-0.5l-0.4-0.4C173.2,30,174.3,30.3,174.4,30.8z"/>
			<path d="M170.8,41.5c0.1,0.6-0.4,0.7-1,0.6l-0.5-0.2l-0.4,0.4c-0.2-0.1-0.2-1.1,0-1.2l0.5,0.4l0.4-0.5c0.1,0,0.2,0,0.3,0l0.2,0.5
				L170.8,41.5z"/>
			<path d="M168.7,51l0.4,0.2c-0.3,0.4-1.3,1-1.6,0.3l-0.3-0.3l-0.5,0.1c0.2-1.3,0.6-2.4,1-3.5l0.6,0.1l0.6,0.1c0,0.9-0.5,2-0.3,2.7
				L168.7,51z"/>
			<path d="M168.2,9.3c0.3,0.2,0.6,0.4,0.5,1c-0.7,0.7-1.7,0.9-2.2,1.8l-0.2,0.5l0.1,0.5c-1.4-0.1-1.5,1.2-2.6,1.4
				c-0.2-0.2-0.3-0.5-0.3-1c1-0.8,2-1.5,2.7-2.5l0.1-0.5l-0.3-0.3C166.7,9.9,167.3,9.5,168.2,9.3z"/>
			<path d="M162,13.6c-0.3,0.3,0.3,0.4,0.1,1l-0.5-0.1l-0.4,0.3c-0.3,0.1-0.9,0.3-1-0.1c0-0.9,0.5-1.2,0.9-1.7l0.5,0.1L162,13.6z"/>
			<path d="M158.9,24.4c0.1,0.3-0.2,0.3-0.1,0.6l-0.6,0l-0.1,0.6c-1.1,0-1-1.9,0.1-1.8l0.3,0.4L158.9,24.4z"/>
			<path d="M148.2,168.3c0.7,0.9,0.3,2.6-1,2.5c-0.3-1.1-0.4-2.9-1.2-3.9c-0.1,0-0.2,0-0.3,0l0.1-0.6l-0.6-0.2
				c0.4-1.2-0.2-1.7,0.9-2.1l0.4,0.4l0.4-0.4c0.3,0.3,0.4,0.9,0.5,1.4l-0.5-0.1l-0.1,0.5c0,0-0.1,0-0.1,0c0.2,0.9,0.3,1.9,0.6,2.6
				l0.4,0.2L148.2,168.3z"/>
			<path d="M144.3,169.5l0.5,0.2c-1.2,2.9-1.8,7.1-5.6,7c0.2-3,1.5-4.9,2.2-7.4l0.5,0.2l0.4-0.4c0.3,0.1,0,0.7,0.1,1
				c0.7-0.2,1-0.8,1.6-1.2L144.3,169.5z"/>
			<path d="M137.4,12.1l-0.6-0.1l-0.3,0.6c0,0-0.1,0-0.1,0l-0.1-0.6l-0.6,0.1c0-1.4-0.3-2.4-0.6-3.4l0.5-0.1l0.5-0.2
				C137,9.3,137.4,10.5,137.4,12.1z"/>
			<path d="M136.4,28.8l-0.4,0.4l0,0.5c-0.8-0.1-1.3-0.4-1.8-0.8l0.4-0.4l0-0.5c0.1,0,0.2,0,0.3,0l0.5,0.1l0.3-0.3
				C135.9,28.1,136.2,28.5,136.4,28.8z"/>
			<path d="M132.5,28.6c0.6,0.7,1.8,0.9,2.2,1.8c-1.2,0.3-2.8,0.4-3.6-0.3l0.3-0.4l-0.1-0.5c0.2,0,0.2,0,0.3-0.1l0.6-0.1L132.5,28.6
				z"/>
			<path d="M130.1,78.9c2.9,0.8,4.8,5.5,2.8,8.4l-0.4-0.4l-0.5,0.1c-3.6,0.8-4.6-3.4-4.3-5.7c-0.2,0.5-0.3,1.2-0.5,1.7l-0.4-0.3
				l-0.4,0.3c-2,1.1-1.1,4.2,0,5.6c0.9-0.1,2.1,0.2,2.6-0.3l0.5,0.1l0.3-0.5c0.3-0.1,0.3,0.1,0.5,0.1l-0.1,0.5l0.3,0.4
				c-0.5,0.6-1.7,0.6-2.2,1.2c0,0.4,0.3,0.4,0.3,0.8l-0.4,0l-0.4,0.2c-1.3,0-1.7,2.1-3.1,2.5c-0.7-0.2-1.4-0.5-2.1-0.6l0.4-0.4
				l0.3-0.5c0.2,0,0.2,0.1,0.4,0.1c-0.7-2.3-1.3-4.8-2.1-7l0.4-0.5l-0.4-0.5c2-2.6,4.2-4.9,5.7-8l0.5-0.3l-0.4-0.5
				c0.2-0.3,1,0,1.4-0.1C129.1,76.8,129.5,77.9,130.1,78.9z"/>
			<path d="M132.3,25.7l-0.5,0.1l0,0.5l-0.4-0.5l-0.5,0.4c-0.2-0.6-0.4-1.8-0.1-2.5l0.5,0.3l0.6-0.1
				C131.8,24.7,132.1,25.1,132.3,25.7z"/>
			<path d="M129.3,12.9c-0.1,0.6-0.8,0.7-1.2,1.2l-0.2-0.4l-0.4,0c0,0,0-0.1,0-0.1l0.1-0.5l-0.1-0.5C128,12.2,129.1,12.4,129.3,12.9
				z"/>
			<path d="M127,25.5l-0.6,0.1l0.1,0.6l-0.4-0.2l-0.5,0.1c-0.2-0.5-0.3-1-0.3-1.7h0.6l0.5-0.4C126.6,24.5,126.8,25,127,25.5z"/>
			<path d="M126.2,20.2c0,0.5,0,1,0,1.6l-0.6-0.1L125,22c-0.4-0.3-0.4-1.1-0.5-1.7l0.6,0l0.3-0.5c0,0,0.1,0,0.1,0l0.2,0.5
				L126.2,20.2z"/>
			<path d="M124,21.7c0.2,0.5,0.1,1.4,0.1,2.1l-0.5-0.1l-0.3,0.5c0,0-0.1,0-0.1,0l0.1-0.6l-0.6,0.1c0-0.8,0.2-1.2,0.1-2.1l0.6,0.1
				L124,21.7z"/>
			<path d="M121.5,15.1c0.6,1.9-0.9,2.8-1.7,1.4l0.5-0.3l-0.1-0.6c0.2-0.1,0-0.5,0.3-0.5l0.5,0.1L121.5,15.1z"/>
			<path d="M119.1,84.1c0,0,0,0.1,0,0.1l-0.5,0.5l0.5,0.5l-0.5,0l-0.3,0.4c-0.3-0.4-0.8-0.6-0.9-1.3l0.6,0l0.1-0.5
				c0.1-0.1,0.2-0.1,0.4-0.1l0.1,0.5L119.1,84.1z"/>
			<path d="M118.3,32.4l0.4,0.2c-0.2,0.3-0.4,0.7-0.8,0.9l-0.5-0.3l-0.6,0c0-0.5,0.3-0.7,0.4-1.2l0.5,0.1l0.4-0.2c0,0,0.1,0,0.1,0
				L118.3,32.4z"/>
			<path d="M118.2,65.6l-0.5,0.1l0,0.5c0,0,0,0.1,0,0.1l-0.5-0.1l-0.3,0.3c-0.3-0.9-0.5-2-0.6-3.1l0.6,0.1l0.5-0.3
				C117.6,63.9,117.9,64.8,118.2,65.6z"/>
			<path d="M114.7,31l0.6,0.1c-0.2,0.3,0,1-0.4,1.2c-0.9,0-1.3-0.6-1.8-1l0.5-0.3l0.1-0.6l0.5,0.4l0.4-0.5c0.1,0,0.1,0,0.1,0.1
				L114.7,31z"/>
			<path d="M113.2,79.3l-0.5,0.1l-0.3,0.4c-0.3-0.3-0.7-0.4-0.8-0.9l0.3-0.4l-0.1-0.5c0,0,0.1,0,0.1,0l0.4,0.3l0.4-0.3
				C113,78.4,113.2,78.8,113.2,79.3z"/>
			<path d="M112.1,178.3c0,0.6,0,1.3,0,1.9l-0.6-0.1l-0.1,0.6c0,0-0.1,0-0.1,0c0,0.6-0.1,1.4,0.3,1.6l0.1,0.5l0.4,0.3
				c-0.2,0.4-0.7,0.6-1.3,0.6c-0.5-0.7-0.2-2.3-0.3-3.4c-1.2,0.2-1.6,1.5-2.3,2.3c-1.4,1.6-3.3,2.8-5.3,3.8c-0.5,0-0.9,0-1.4,0
				c-0.4-0.3-0.9-0.5-1.2-0.9c1.9-1.9,3.3-4.3,5.3-6.1c0.2-0.2,0.1-0.4,0.5-0.3l0,0.6l0.6,0.1c0.1,0.3-0.1,0.3-0.1,0.5
				c2.2-0.1,3-1.6,4.7-2.2c0-0.2,0-0.2,0.1-0.3l0.3,0.3L112.1,178.3z"/>
			<path d="M110.5,70.6l-0.5,0.1l-0.3,0.3c0,0-0.1,0-0.1,0l-0.2-0.6l-0.6,0.1c0-0.2,0-0.4,0-0.6l0.5,0.1l0.4-0.3
				C110.1,69.8,110.4,70.2,110.5,70.6z"/>
			<path d="M105.5,18.5l-0.6,0.1l-0.6,0.2c-0.3-0.2-0.3-0.5-0.9-0.4l-0.3-0.4l-0.3-0.4c0.8-0.3,1.1-1.1,2.2-1.2l0,0.5l0.4,0.4
				c0,0.1-0.2,0.1-0.3,0.1C105.1,18,105.5,18.1,105.5,18.5z"/>
			<path d="M105,28.1c0.1,2.4-4.9,3.9-4,0.6c0.9,0.2,1.2,0.7,2.1,0.5C103.9,29,104,27.3,105,28.1z"/>
			<path d="M101.2,37.5c0,0,0,0.1,0,0.1l-0.5,0.1l-0.3,0.4c-0.5-0.2-1-0.5-1.3-0.9l0.3-0.3l0.1-0.5c0.5,0.1,0.9-0.7,1.4,0.1
				l-0.5,0.6L101.2,37.5z"/>
			<path d="M82.3,99.2l-0.4,0.3l0,0.5c-0.2,0-0.3,0.2-0.5,0.1l-0.3-0.5l-0.5,0.1c-0.1-0.6,0.2-0.8,0.1-1.4c0.1-0.1,0.3-0.1,0.5-0.1
				l0.1,0.6l0.6-0.1C82,99,82.3,99,82.3,99.2z"/>
			<path d="M28.1,132.1l-0.2,0.2l0.1,0.5c-0.7,0-0.8,0.6-1.3,0.8l-0.3-0.5l-0.5,0.3c-0.3-1.1-0.5-2.2-0.6-3.4l0.5,0.1
				c0.1,0.4,0.2,0.6,0.2,0.6S26.8,131.3,28.1,132.1z"/>
			<path d="M18.5,132.5l0.3-0.2l-0.1-0.5c0.7-0.3,1.7-0.4,2.5-0.6l0.2,0.4l0.4,0c0.5,0.8,0.4,2.3,0.5,3.6l-0.5-0.1l-0.3,0.5
				c-0.5,0-1.1,0-1.4-0.1l-0.3-0.3l-0.5,0.1c-0.4-0.8-1.2-1.2-1-2.6L18.5,132.5L18.5,132.5z"/>
			<path d="M6.2,117.3l-0.5,0.3l0.1,0.2l-2.5-0.5c0,0,0.4,0.6,1,1.6l-0.1,0L4,119.4c-2.2-1.2-4.2-2.4-4-6
				C2.5,110.1,4.2,116.4,6.2,117.3z"/>
			<path d="M5.9,117.8l0.2,0.3c-0.2,0.6-0.8,0.7-1.3,0.9l-0.4,0c-0.6-1-1-1.6-1-1.6L5.9,117.8z"/>
		</g>
		<g>
			<path class="st2" d="M200.1,93.3c1.1,0.4,2.2,0.4,3.4,0.3"/>
			<path class="st2" d="M199.7,92.3c-0.7-2.1-1.2-4.2-2-6.2"/>
			<path class="st2" d="M192.2,97.9c-4.1-2.1-4.5-8.1-5-12.3"/>
			<path class="st2" d="M187.2,84.8c-0.8-0.9-1.1-2.3-1.9-3.2"/>
			<path class="st2" d="M183.7,84.9c0.3-1.2,0.6-2.3,1-3.4"/>
			<path class="st2" d="M197.3,77.2c-4.2,0.4-7.1,4.5-9.7,7.4"/>
			<path class="st2" d="M197.3,77.2c-1-2.4-3.5-5.1-5.4-7.3c-3.8-4.3-6.3-10-8.7-15.3"/>
			<path class="st2" d="M197.3,77.2c0.4,0.1,0.8,0.4,1.2,0.6"/>
			<path class="st2" d="M182.5,53.2c-1.1-4.2,0.2-8.8-0.9-13"/>
			<path class="st2" d="M184.8,80.9c0.1-8.8-1.9-17.6-2.2-26.4"/>
			<path class="st2" d="M183.4,85.7c-1.5,1.9-1.5,5.1-3.7,6.3"/>
			<path class="st2" d="M180.8,106.2c1.5,3.9,4.2,9.6,6.4,14.5c1.7,3.9,4.3,7.1,6.1,10.9c3.5,7.3,7.9,13.5,12.4,19.6
				c1,1.3,1.8,2.5,2.7,4"/>
			<path class="st2" d="M180.8,106.2c1.1-6.7,3.5-13.3,3-20.3"/>
			<path class="st2" d="M179.2,126.5c-0.4-4.2-0.2-12.9,0.7-17.7c0.2-0.9,0.2-2,0.9-2.6"/>
			<path class="st2" d="M179.2,126.5c3.9,7.7,9.8,19.2,15.5,26.9c2.7,3.7,4.7,7.6,7,11.3"/>
			<path class="st2" d="M178.1,171.5c0,0,0-0.1,0-0.1c1-10.2,0.3-23,0.8-33.8c0.2-3.7-0.4-7.9,0.2-11.1"/>
			<path class="st2" d="M177.3,19.2c4.4-2.4,3.7,5.5,0.7,6.6c-0.1,0.8-0.1,1.7-0.1,2.6"/>
			<path class="st2" d="M178.4,91.8c-0.9-1.2-2-2.3-3.3-3.1"/>
			<path class="st2" d="M176.8,94.4c0.5,2.4,2,4.5,2.8,6.9"/>
			<path class="st2" d="M176.8,94.4c-1.1-1.4-1.5-3.3-2.1-4.9"/>
			<path class="st2" d="M176.8,94.4c0.7-0.6,1-1.5,1.5-2.2"/>
			<path class="st2" d="M173.8,34.5c1.4-0.8,2.7-1.8,3.8-3"/>
			<path class="st2" d="M170.2,41.5c1.2-2,1-4.8,2.7-6.5"/>
			<path class="st2" d="M169.4,41.5c0.2-3.4-0.2-7.6,3.7-9.2"/>
			<path class="st2" d="M168.3,47.8c0.5-1.9,0.9-3.9,1-5.8"/>
			<path class="st2" d="M168.7,51c3.8-3.5,8-6.5,11.9-10"/>
			<path class="st2" d="M176.8,16c-0.1-1,0.8-1.9,0.5-2.9c-0.9,0-1.4,1.2-2.3,1c-0.2-0.7,0.7-1.2,0.5-1.9c-0.3-0.2-0.6,0.1-1,0
				c-0.1,0-0.1-0.1-0.2-0.1c-0.1-0.3,0.1-0.6-0.1-0.9c-2.6,0.4-5.1,1.5-7.8,1.4"/>
			<path class="st2" d="M176.7,84c-0.2,1.4-1.5,2.4-2,3.7"/>
			<path class="st2" d="M176.7,84c4.1-3.5,2.9-9.8,2.2-15.2c-0.6-5-1.3-9.9-1.8-13.7"/>
			<path class="st2" d="M165.3,83.4c-1.1-10.8,0.4-21.7,1.8-32.3"/>
			<path class="st2" d="M165.3,83.4c1.1,7,0.6,16.2,1.1,24c0.1,2.5,0.8,4.9,0.9,7.2c0.8,13.7,1.8,27.7,0.4,41.3
				c-0.5,5-0.5,9.8-1.9,14.9"/>
			<path class="st2" d="M165.3,83.4c3.7,1.5,7.5,0.8,11.3,0.6"/>
			<path class="st2" d="M180.4,37.8c-2.2,1.4-4.4,3.6-7.1,4c0-2.1,0.5-4.3,0.1-6.5"/>
			<path class="st2" d="M180.4,37.8c0.1,0.6,0.2,1.2,0.6,1.6"/>
			<path class="st2" d="M180.3,29.6c-0.3,0.1-0.5,0.1-0.7,0.2"/>
			<path class="st2" d="M180.3,29.6c-0.1,2.7,0.9,5.5,0.1,8.2"/>
			<path class="st2" d="M161.7,13.2c1.6-0.7,3.1-1.8,4.7-2.5"/>
			<path class="st2" d="M161.7,13.2c0.3-5.5,3.3-10.6,8.7-11.9c5.4-1.3,11.3-0.8,15.2,3.7c0.1-0.1,0.2-0.2,0.4-0.4
				c1.7,0.3,1.8,2.5,2.6,3.8c0.8,0.8,2.5,0.5,3,1.7c-0.4,0.5-1.2,0.1-1.7,0.3c1.4,3,1.6,5.3,0.7,8.3c-1.9,5.8-7.7,6.8-10.3,10.9"/>
			<path class="st2" d="M158.4,24.3c2.7-2.5,3.2-6.3,3.2-9.8"/>
			<path class="st2" d="M173.2,30.9c-1.3,0.2-2.8,0.7-4,0.9c-3.5,0.6-5.3-0.7-7-2.9c-0.6-0.7-1-1.5-1.7-2.2
				c-0.6-0.6-1.5-0.8-2.4-1.6"/>
			<path class="st2" d="M147.8,168.7c-0.2-1.1-0.4-2.3-0.9-3.2"/>
			<path class="st2" d="M144.3,169.5c0.8-0.9,0.6-2.4,1.4-3.2"/>
			<path class="st2" d="M135.3,28.1c-1.8-5.3-0.2-10.9,1-16"/>
			<path class="st2" d="M134.6,28.6c-1.3-0.5-1.9-1.8-2.8-2.7"/>
			<path class="st2" d="M132.2,29c-0.6-0.9-1-2.1-0.8-3.2"/>
			<path class="st2" d="M132.5,87c-0.4,1-1.2,1.6-2.3,1.6"/>
			<path class="st2" d="M129.5,88.4c-1.7-1.4-3-3.5-2.7-5.7"/>
			<path class="st2" d="M131.4,29.7c-2-0.9-3.7-2.5-5.1-4.1"/>
			<path class="st2" d="M125.9,24.4c-0.1-0.9-0.2-1.9-0.4-2.8"/>
			<path class="st2" d="M125.7,20.2c0.3-2.3,1-4.5,2.2-6.5"/>
			<path class="st2" d="M123.6,15.1c1.2-4.3,7.1-6.4,8.1-1.9c0.8,3.3-0.5,7.5-0.5,10.9"/>
			<path class="st2" d="M123.6,15.1c1.4-0.5,2.4-1.9,4-2.1"/>
			<path class="st2" d="M123,18.1c-0.2-0.3-0.5-0.4-0.6-0.7c0-0.9,0.7-1.6,1.1-2.3"/>
			<path class="st2" d="M123,18.1c-0.3,1.2,0.4,2.3,0.4,3.5"/>
			<path class="st2" d="M123,18.1c1.1,0.2,1.5,1.4,2.1,2.2"/>
			<path class="st2" d="M137.8,22.8c-1.9-3.2,0-7.2-1-10.7"/>
			<path class="st2" d="M137.8,22.8c-0.1,2.4,0.7,4.8,2.5,6.2c-1.2,0.9-3,0.6-4.3,0.2"/>
			<path class="st2" d="M125.2,6.8c3.4-0.7,8.1-1.6,10.4,1.9"/>
			<path class="st2" d="M125.2,6.8c2.1-2.9,5.4-2.8,8-2.4c5.3,0.8,7.8,6.4,6.3,12.8c-0.2,1-0.9,4-1.7,5.5"/>
			<path class="st2" d="M121,15.2c0.3-3.1,1.4-6.6,4.2-8.4"/>
			<path class="st2" d="M118.3,32.4c2.5-2.3,3.9-5.7,4.9-8.8"/>
			<path class="st2" d="M123,92.6c-1.8-2.3-3.3-4.8-4.5-7.5"/>
			<path class="st2" d="M118.5,84.7c1.2,0,2.3,0.1,3.5,0.1"/>
			<path class="st2" d="M125.1,76.2c1,0.1,1.8-0.4,2.8-0.2"/>
			<path class="st2" d="M125.1,76.2c-2.9-3.2-5.2-6.9-7.4-10.6"/>
			<path class="st2" d="M121.2,80.6c-2-4.5-3-9.5-4-14.3"/>
			<path class="st2" d="M121.2,80.6c-0.6,1.4-1.7,2.4-2.7,3.5"/>
			<path class="st2" d="M121.2,80.6c1.6-1.1,2.5-3,3.9-4.3"/>
			<path class="st2" d="M114.7,31c1.2-2.4,4.1-1.6,3,1.1"/>
			<path class="st2" d="M116.6,36.6c4.1-2.8,7.9-7.6,7-12.9"/>
			<path class="st2" d="M116.6,36.6c-0.5-0.3-0.7-1-0.8-1.6c0.4-0.7,1.4-1,1.7-1.8"/>
			<path class="st2" d="M116.8,38.4c-0.2-0.5-0.2-1.1-0.2-1.7"/>
			<path class="st2" d="M116.8,38.4c5.5-0.9,8.7-7.2,9.2-12.3"/>
			<path class="st2" d="M116.8,63.6c-1.2-7.7-3.9-15.1-4-22.9c1.2-1,2.8-1.4,4.1-2.3"/>
			<path class="st2" d="M111.7,182.8c0.6-0.6,0.2-1.9-0.2-2.6"/>
			<path class="st2" d="M112.5,78.4c-0.6-2.6-1.1-5.3-2.4-7.7"/>
			<path class="st2" d="M112,78.5c-1.7-2.1-3.1-5.3-2.6-8.1"/>
			<path class="st2" d="M136.7,126.5c4.9,12.3,4.4,25.9,9.8,37.9"/>
			<path class="st2" d="M136.7,126.5c0.8-1.8,3.2-2.6,3.9-4.5c-2.8-10.8-7.6-20.9-12.4-30.9"/>
			<path class="st2" d="M132.8,130c0-0.2,0-0.4,0-0.5c1.5-0.8,2.3-2.7,3.9-3"/>
			<path class="st2" d="M132.8,130c3.8,11.6,7.2,23.4,10.6,35.2c-0.6,1.4-1.2,2.9-1.4,4.4"/>
			<path class="st2" d="M113.6,81.1c-0.3-0.6-0.5-1.2-0.9-1.7"/>
			<path class="st2" d="M113.6,81.1c1.6,0.6,3,2,4.3,3.1"/>
			<path class="st2" d="M117.6,142.1c5.3-3.6,9.9-8.3,15.1-12"/>
			<path class="st2" d="M117.6,142.1c-0.7,12.2-3.6,24.3-6,36.2"/>
			<path class="st2" d="M114.3,143.9c-1,0-2.1,0.6-3.1,0.2c0.6-9.3,1.3-18.3,1.8-27.3c0.2-3.7,0.2-7.5,0.6-11.2
				c0.8-7.6,1.6-15.2,0.3-22.5c-0.1-0.7-0.4-1.2-0.3-2"/>
			<path class="st2" d="M114.3,143.9c0.9-0.8,2.2-1.5,3.4-1.8"/>
			<path class="st2" d="M106.1,179.8c0.9-0.8,1.7-2,2.8-2.6c2.6-10.9,5.1-22,5.4-33.3"/>
			<path class="st2" d="M112.2,26.5c0.7,1.4,1.5,2.7,1.9,4.3"/>
			<path class="st2" d="M106.1,20.4c-0.4-0.6-0.8-1.1-1.2-1.7"/>
			<path class="st2" d="M106.1,20.4c1.6,3.9,4.3,7.7,7.5,10.6"/>
			<path class="st2" d="M109.6,15.5c3.4-1.4,7.5-0.9,10.8,0.7"/>
			<path class="st2" d="M109.6,15.5c0.2,1.4,0.5,2.8,1,4.4c0.6,2.2,2,4.8,1.7,6.6"/>
			<path class="st2" d="M110.8,25c0.5,0.5,0.6,1.4,1.5,1.5"/>
			<path class="st2" d="M110.8,25c-2-1.1-2.6-3.8-4.7-4.7"/>
			<path class="st2" d="M107.1,16.2c0.7-0.5,1.6-0.9,2.5-0.6"/>
			<path class="st2" d="M107.1,16.2c0.9,3,3.1,5.8,3.7,8.9"/>
			<path class="st2" d="M105,17.1c0.7-0.4,1.3-0.7,2.1-0.9"/>
			<path class="st2" d="M100.5,37.2c1.2-0.2,2.3-1.2,2.1-2.5"/>
			<path class="st2" d="M99.5,36.9c-2.2-1.7-4.4-3.6-6.2-5.8c4.8-3.1,4.9-9.9,9.8-13.1"/>
			<path class="st2" d="M96.3,110.3c1.7,0.6,4.8,0.4,6.7,2.1c1.2,1,3.7,4,2.6,5.5c-0.6,0.8-2.1,0.9-2.9,0.7
				C99.8,118,96.4,113.3,96.3,110.3z"/>
			<path class="st2" d="M95.4,109.4c0.3,0.3,0.6,0.6,0.9,0.9"/>
			<path class="st2" d="M95.4,109.4c-1.2-0.1-2.1-1.4-2.2-2.5"/>
			<path class="st2" d="M92.1,99c-1.5,0.7-2.7,1.8-3.6,3.2c-2.9,1-3.8-2.9-6.6-2.7"/>
			<path class="st2" d="M92.1,99c2.4,2.8,2.6,7,3.3,10.4"/>
			<path class="st2" d="M105.6,65.5c1,1.7,2.7,2.8,3.7,4.4"/>
			<path class="st2" d="M105.6,65.5c-0.7,0.5-1.5,2.6-2.2,4.2c-1.3,3-2.6,6.5-3.8,9.3c-1.5,3.7-3.1,7.1-4.5,10.5
				c-1.4,3.4-3.1,6.2-3.1,9.5"/>
			<path class="st2" d="M110.2,48.9c1,1.2,0.2,5.6-0.4,7.5c-1.2,3.6-3.9,6.2-4.1,9.1"/>
			<path class="st2" d="M110.2,48.9c0.5-2.6,0.9-5.7-0.4-8.1c-3.3,0.2-6.5-1-9.1-3.1"/>
			<path class="st2" d="M81.3,98.8c1.1-1.6,3.5-1.4,4.8-2.7c3.9-3.7,8.4-11.9,10.9-17c1.8-3.7,3.1-7.1,4.4-10.4
				c2.2-5.6,4.8-11.2,6.6-17c0.3-1.1,0.3-2.3,2-2.8c0,0,0.1,0,0.1,0"/>
			<path class="st2" d="M21.5,131.5c0.1-1.3,0-2.7-0.6-3.8"/>
			<path class="st2" d="M8.4,118.6c-0.9-0.3-1.8-0.6-2.7-0.9"/>
			<path class="st2" d="M25.8,130.1c-1.3-5.1-3.3-8.1-8.4-9.1c-1.6-0.3-3.3-0.7-5-1.2c-1.3-0.4-2.5-0.8-3.8-1.2"/>
			<path class="st2" d="M7.9,124.3c-1.3-1.8-2.4-3.6-3.6-5.4"/>
			<path class="st2" d="M18.8,132.4c-4.9-0.7-8.1-4-10.8-7.8"/>
			<path class="st2" d="M51.1,139.8c-0.3-0.1-0.7-0.3-1.1-0.4c-1.8-0.6-4.2-0.7-6.3-0.8c-1,0-2-0.1-2.8-0.2c-5.1-0.7-9.1-3.6-13-6.2
				"/>
			<path class="st2" d="M53.2,140.7c-0.6-0.3-1.3-0.5-2.1-0.9"/>
			<path class="st2" d="M57.9,144.1c2.9-0.2,5.8-1.1,7.1-3.5c-1.3,0.3-3,0.8-4.4,1c-0.4,0.1-0.7,0.1-1.1,0.2c-2.5,0.3-3.7,0-5.2-0.6
				c-0.4-0.1-0.7-0.3-1.1-0.5"/>
			<path class="st2" d="M55,144c0.9,0.1,1.8,0.2,2.8,0.1"/>
			<path class="st3" d="M54,144.5c-0.1-0.2-0.2-0.4-0.3-0.6c0-0.1,0-0.1,0.1-0.2"/>
			<path class="st2" d="M56.3,149.8c-0.4-0.6-0.6-1.2-0.8-1.6c-0.5-1.2-0.9-2.4-1.4-3.7"/>
			<path class="st2" d="M61.6,156.2c-0.3-0.2-0.6-0.4-0.9-0.7c-1.5-1.4-3.3-3.7-4.4-5.6"/>
			<path class="st2" d="M61.7,158.3c1,0.7,2.1,1.3,3.3,1.9c0.1,0,0.2,0,0.2,0c0.1,0,0.1,0,0.2,0c0-0.1,0-0.2,0-0.3
				c0.1-1.1-0.5-1.9-1.2-2.4c-0.6-0.4-1.3-0.7-2-0.9c-0.2-0.1-0.4-0.2-0.6-0.3"/>
			<path class="st2" d="M52.7,150.2c1.3,0.9,2.5,3,4.6,4.7c1.4,1.2,2.8,2.4,4.4,3.4"/>
			<path class="st2" d="M52.2,149.9c0.2,0.1,0.4,0.2,0.6,0.3"/>
			<path class="st2" d="M44.8,149.4c2.2-0.5,5.5-0.3,7.4,0.4"/>
			<path class="st2" d="M42.7,149.3c0.6-0.4,1.5-0.3,2.1,0.1"/>
			<path class="st2" d="M42.7,149.3c0,0,0,0.1,0,0.1c0.1,1.3,0.2,2.4,0.6,3.5c1.3,3.9,6.2,6.2,7.5,1.2c-0.5-1.5-2.1-1.2-2.6,0.1
				c-2.3,0.3-3.7-2.4-3.5-4.5c0-0.1,0-0.2,0.1-0.4"/>
			<path class="st2" d="M26.5,144.2C26.5,144.2,26.5,144.2,26.5,144.2c0.6-0.8,2.1-1.4,2.3-2.1c0.2-0.8-1.1-3.3-1.4-4.3
				c-0.4-1.2-1.1-2.8-1-4.8"/>
			<path class="st2" d="M37.5,148.5c1.7,0.3,3.5,0.5,5.2,0.8"/>
			<path class="st2" d="M30.6,146.8c2.2,0.9,4.5,1.4,6.9,1.8"/>
			<path class="st2" d="M27.8,145.2c0.9,0.6,1.8,1.1,2.8,1.5"/>
			<path class="st2" d="M26.5,144.2c0.4,0.4,0.8,0.7,1.3,1"/>
			<path class="st2" d="M26.5,144.2c-2.3,1.5-4.3-0.3-4.5-2.6"/>
			<path class="st3" d="M27.8,145.2c-0.6-0.5-1-0.9-1.2-1.1c-0.7-0.6-0.1,0.1-0.1,0.1"/>
			<path class="st2" d="M27.8,145.2C27.8,145.2,27.8,145.2,27.8,145.2"/>
			<path class="st3" d="M30.5,146.7c-1.2-0.4-2.1-0.9-2.6-1.3c-0.1,0-0.1-0.1-0.2-0.1"/>
			<path class="st2" d="M30.6,146.8C30.6,146.8,30.6,146.7,30.6,146.8"/>
			<path class="st3" d="M37.5,148.5c-2.4-0.5-5-1.1-6.9-1.8"/>
			<path class="st2" d="M37.5,148.5C37.5,148.5,37.5,148.5,37.5,148.5"/>
			<path class="st3" d="M52.7,150.2c-0.2-0.2-0.4-0.3-0.6-0.3h0c-0.8,0-6.5,0-7.4-0.1c-0.1,0-0.1,0-0.1,0c-0.1,0-0.8-0.1-1.9-0.3
				c-1.3-0.2-3.2-0.5-5.2-0.9"/>
			<path class="st2" d="M52.7,150.2C52.7,150.2,52.7,150.2,52.7,150.2"/>
			<path class="st3" d="M56.3,149.8c1.2,1.6,3.4,4.4,4.4,5.6c0.3,0.4,0.5,0.6,0.6,0.6c0.1,0,0.2,0,0.3,0.1c0,0,0,0,0,0
				c0.6,0.2,1.9,0.5,2.5,1.1c0,0,0.1,0.1,0.1,0.1c0.6,0.6,1.2,1.8,1.2,2.4c0,0.1,0,0.2,0,0.3c0,0-0.1,0-0.2,0
				c-0.5-0.1-2.2-1-3.5-1.8c0,0,0,0,0,0c-1.1-0.7-2-1.3-2-1.3s-3.1-2.8-3.8-3.2c-0.6-0.3-2.1-2.7-3.1-3.6"/>
			<path class="st2" d="M56.3,149.8C56.3,149.8,56.3,149.8,56.3,149.8"/>
			<path class="st3" d="M53.2,140.7c0.1,0,0.1,0.1,0.2,0.1c0.2,0.1,0.5,0.2,1,0.4c1.3,0.3,3.8,0.6,6.3,0.4c1.5-0.1,3.1-0.4,4.4-1
				c-0.2,0.1-2.2,3.1-7.1,3.5c-0.1,0-0.1,0-0.2,0c-0.8,0.1-1.8,0-2.8-0.1c-0.4,0-0.8-0.1-1.1-0.2c0,0,0.1,0.3,0.2,0.8c0,0,0,0,0,0
				c0.4,1.4,1.4,4.1,1.4,4.1s0.3,0.4,0.9,1.1"/>
			<path class="st2" d="M53.2,140.7C53.2,140.7,53.2,140.7,53.2,140.7"/>
			<path class="st3" d="M51.1,139.8c0.9,0.3,1.6,0.6,2.1,0.9"/>
			<path class="st2" d="M51.1,139.8C51.1,139.8,51.1,139.8,51.1,139.8"/>
			<path class="st3" d="M28.1,132.1c2.5,1.7,6.4,4.3,7.5,4.7c1.1,0.5,5.3,1.4,8.2,1.8c1.2,0.2,2.1,0.3,2.7,0.2
				c1.2-0.1,3.1,0.4,4.7,0.9"/>
			<path class="st3" d="M8.6,118.6c2.6,0.8,7,2.3,7.4,2.4c0.6,0.2,4.3,0,6.5,3c1.7,2.3,2.7,4.9,3.1,6.1"/>
			<path class="st2" d="M8.4,118.6c0.1,0,0.1,0,0.2,0.1"/>
			<path class="st3" d="M5.9,117.8l0.9,0.2c0,0,0.7,0.2,1.7,0.5"/>
			<path class="st3" d="M7.9,124.3c-1.3-2-2.6-4-3.5-5.3"/>
			<path class="st2" d="M8.1,124.6c-0.1-0.1-0.1-0.2-0.2-0.3"/>
			<path class="st3" d="M18.5,132.5c-1.4-0.2-4.1-0.9-6.2-2.7c-1.1-1-2.7-3.1-4.3-5.3"/>
			<path class="st2" d="M22,141.7c0.4-2.1,0-4.4-0.1-6.5"/>
			<path class="st2" d="M20.3,141.6c0.6-0.1,1.2-0.1,1.8,0.1"/>
			<path class="st2" d="M18.7,142c-4.1,0-10,7.5-14.2,7c-0.8-0.1-1.8-0.4-1.9-1.7c6.1-3.3,14.4-5.1,17.2-12.2"/>
			<path class="st2" d="M18.7,142c-0.8,3.1,1.7,8.9,4.9,8.3c2.2-0.4,2.4-4.4-0.5-2.6c-2.6-0.5-2.5-4-2.8-6"/>
			<path class="st2" d="M18.7,142c0.4-0.3,1-0.7,1.5-0.4"/>
			<path class="st2" d="M18.3,125.7c-0.7,0.6-2.4,0.6-2.2-0.7"/>
			<path class="st2" d="M167.1,27.5c-0.7,0.9-2.3,1.7-3.2,0.8"/>
			<path class="st2" d="M167.4,21.9c-0.5,0.7-2.1,1.3-2.5,0.1"/>
		</g>
	</g>
	<path class="st4" d="M85.1,100.7c-31.2,11.5-59.6,28.1-58.9,30.8c0,0.2,0.1,0.3,0.3,0.4"/>
</g>
</svg>
